<svg width="56" height="56" viewBox="0 0 56 56" fill="none" xmlns="http://www.w3.org/2000/svg">
<path d="M47.837 11.0053L44.2226 51.4958L27.9757 56L11.7735 51.5022L8.16296 11.0053H47.837Z" fill="#004CE8"/>
<path d="M41.1283 48.9175L44.217 14.3165H28V52.5572L41.1283 48.9175Z" fill="#0065F4"/>
<path d="M16.4401 29.3362L16.8852 34.303H27.9999L30.1363 31.8196L27.9999 29.3362H16.4401Z" fill="#EBEBEB"/>
<path d="M28 19.2834H27.9828H15.5457L15.9972 24.2502H28L30.1364 21.7667L28 19.2834Z" fill="#EBEBEB"/>
<path d="M27.9999 47.403L30.1364 44.7692L27.9999 42.2355L27.9782 42.2413L22.4466 40.7477L22.093 36.7864H19.4051H17.1072L17.803 44.585L27.9771 47.4094L27.9999 47.403Z" fill="#EBEBEB"/>
<path d="M17.5 0H23.5156V2.51562H20.0156V5.03125H23.5156V7.54688H17.5V0Z" fill="black"/>
<path d="M24.7188 0H30.7344V2.1875H27.2344V2.625H30.7344V7.65625H24.7188V5.35938H28.2188V4.92188H24.7188V0Z" fill="black"/>
<path d="M31.9375 0H37.9531V2.1875H34.4531V2.625H37.9531V7.65625H31.9375V5.35938H35.4375V4.92188H31.9375V0Z" fill="black"/>
<path d="M34.0988 34.303L33.5223 40.7445L27.9828 42.2397V47.407L38.1649 44.585L38.2396 43.7459L39.4068 30.67L39.528 29.3363L40.4246 19.2834H27.9828V24.2502H34.9815L34.5295 29.3363H27.9828V34.303H34.0988Z" fill="white"/>
</svg>
