<svg width="240" height="240" viewBox="0 0 240 240" fill="none" xmlns="http://www.w3.org/2000/svg">
<path d="M117.208 54.8768H116.806V49.649C116.806 44.9014 120.668 41.0388 125.416 41.0388H130.836V41.4415H125.416C120.89 41.4415 117.208 45.1233 117.208 49.649L117.208 54.8768Z" fill="#B7BCFF"/>
<path d="M130.74 126.43H125.512C120.764 126.43 116.902 122.568 116.902 117.82V112.401H117.304V117.82C117.304 122.346 120.986 126.028 125.512 126.028H130.74V126.43Z" fill="#B7BCFF"/>
<path d="M223.2 54.8768H222.797V49.649C222.797 45.1234 219.116 41.4416 214.59 41.4416H209.171V41.0389H214.59C219.338 41.0389 223.2 44.9014 223.2 49.6491L223.2 54.8768Z" fill="#B7BCFF"/>
<path d="M214.494 126.43H209.266V126.028H214.494C219.02 126.028 222.702 122.346 222.702 117.82V112.401H223.104V117.82C223.105 122.568 219.242 126.43 214.494 126.43Z" fill="#B7BCFF"/>
<path d="M218.41 49.6488V117.821C218.41 120.095 216.567 121.938 214.293 121.938H125.713C123.439 121.938 121.596 120.095 121.596 117.821V49.6488C121.596 47.3748 123.439 45.5314 125.713 45.5314H214.293C216.567 45.5313 218.41 47.3748 218.41 49.6488Z" fill="url(#paint0_linear_7_2484)"/>
<path d="M218.411 49.6482V59.489H150.717C150.002 59.489 149.334 59.1354 148.931 58.5443L146.292 54.6693C145.889 54.0782 145.22 53.7245 144.505 53.7245H135.234C134.519 53.7245 133.85 54.0782 133.447 54.6693L130.808 58.5443C130.405 59.1353 129.736 59.489 129.021 59.489H121.596V49.6484C121.596 47.3731 123.441 45.5286 125.716 45.5286H214.291C216.567 45.5286 218.411 47.373 218.411 49.6482Z" fill="url(#paint1_linear_7_2484)"/>
<path d="M213.925 52.6234C213.925 54.3021 212.564 55.6629 210.886 55.6629H162.532C160.853 55.6629 159.492 54.3021 159.492 52.6234C159.492 50.9447 160.853 49.5838 162.532 49.5838H210.886C212.564 49.5838 213.925 50.9447 213.925 52.6234Z" fill="url(#paint2_linear_7_2484)"/>
<path d="M210.886 49.5838H207.913V55.6629H210.886C212.565 55.6629 213.925 54.302 213.925 52.6234C213.925 50.9447 212.565 49.5838 210.886 49.5838Z" fill="#3D79F3"/>
<path d="M210.44 53.4567C210.44 53.4567 210.44 53.4567 210.439 53.4567C210.153 53.4567 209.884 53.3446 209.681 53.1414C209.479 52.9397 209.368 52.6707 209.367 52.3843C209.366 52.0971 209.478 51.8271 209.681 51.6243C209.882 51.4228 210.152 51.3118 210.44 51.3118C210.727 51.3118 210.997 51.4228 211.198 51.6243C211.401 51.8271 211.513 52.0971 211.512 52.3843C211.512 52.6707 211.4 52.9397 211.198 53.1416C210.995 53.3448 210.726 53.4567 210.44 53.4567ZM210.44 51.5132C210.206 51.5132 209.987 51.6032 209.823 51.7667C209.659 51.9315 209.568 52.1505 209.569 52.384C209.569 52.6166 209.659 52.8351 209.823 52.9991C209.989 53.1642 210.207 53.2553 210.44 53.2553C210.672 53.2553 210.89 53.1644 211.056 52.9993C211.22 52.8353 211.31 52.6168 211.31 52.384C211.311 52.1505 211.22 51.9315 211.056 51.7667C210.892 51.6033 210.673 51.5132 210.44 51.5132Z" fill="white"/>
<path d="M211.891 53.9351C211.865 53.9351 211.839 53.9253 211.82 53.9056L211.056 53.1416C211.016 53.1023 211.016 53.0386 211.056 52.9993C211.095 52.96 211.159 52.96 211.198 52.9993L211.962 53.7632C212.001 53.8026 212.001 53.8663 211.962 53.9056C211.942 53.9253 211.917 53.9351 211.891 53.9351Z" fill="white"/>
<path d="M136.673 64.8132H127.11V66.7643H136.673V64.8132Z" fill="white"/>
<path d="M136.673 69.3572H127.11V71.3084H136.673V69.3572Z" fill="white"/>
<path d="M157.287 64.8132H142.04V66.7645H157.287V64.8132Z" fill="white"/>
<path d="M183.359 64.8132H161.671V66.7645H183.359V64.8132Z" fill="white"/>
<path d="M188.615 69.3572H175.053V71.3084H188.615V69.3572Z" fill="white"/>
<path d="M169.054 69.3572H142.04V71.3084H169.054V69.3572Z" fill="white"/>
<path d="M136.673 73.3263H127.11V75.2774H136.673V73.3263Z" fill="white"/>
<path d="M136.673 77.8704H127.11V79.8216H136.673V77.8704Z" fill="white"/>
<path d="M157.287 73.3264H142.04V75.2776H157.287V73.3264Z" fill="white"/>
<path d="M200.019 73.3264H161.671V75.2776H200.019V73.3264Z" fill="white"/>
<path d="M188.615 77.8703H175.053V79.8215H188.615V77.8703Z" fill="white"/>
<path d="M169.054 77.8703H142.04V79.8215H169.054V77.8703Z" fill="white"/>
<path d="M140.481 82.5244H130.918V84.4755H140.481V82.5244Z" fill="white"/>
<path d="M140.481 87.0684H130.918V89.0196H140.481V87.0684Z" fill="white"/>
<path d="M161.095 82.5244H145.849V84.4756H161.095V82.5244Z" fill="white"/>
<path d="M187.167 82.5244H165.479V84.4756H187.167V82.5244Z" fill="white"/>
<path d="M200.888 87.0683H178.861V89.0195H200.888V87.0683Z" fill="white"/>
<path d="M172.862 87.0683H145.849V89.0195H172.862V87.0683Z" fill="white"/>
<path d="M140.481 91.0375H130.918V92.9886H140.481V91.0375Z" fill="white"/>
<path d="M140.481 95.5815H130.918V97.5327H140.481V95.5815Z" fill="white"/>
<path d="M161.095 91.0375H145.849V92.9887H161.095V91.0375Z" fill="white"/>
<path d="M187.167 91.0375H165.479V92.9887H187.167V91.0375Z" fill="white"/>
<path d="M211.891 95.5814H178.861V97.5327H211.891V95.5814Z" fill="white"/>
<path d="M172.862 95.5814H145.849V97.5327H172.862V95.5814Z" fill="white"/>
<path d="M137.081 100.291H127.518V102.242H137.081V100.291Z" fill="white"/>
<path d="M137.081 104.835H127.518V106.786H137.081V104.835Z" fill="white"/>
<path d="M157.696 100.291H142.449V102.242H157.696V100.291Z" fill="white"/>
<path d="M183.767 100.291H162.079V102.242H183.767V100.291Z" fill="white"/>
<path d="M189.023 104.835H175.461V106.786H189.023V104.835Z" fill="white"/>
<path d="M169.462 104.835H142.449V106.786H169.462V104.835Z" fill="white"/>
<path d="M137.081 108.804H127.518V110.755H137.081V108.804Z" fill="white"/>
<path d="M137.081 113.348H127.518V115.299H137.081V113.348Z" fill="white"/>
<path d="M157.696 108.804H142.449V110.755H157.696V108.804Z" fill="white"/>
<path d="M183.767 108.804H162.079V110.755H183.767V108.804Z" fill="white"/>
<path d="M208.589 113.348H175.461V115.299H208.589V113.348Z" fill="white"/>
<path d="M149.345 113.348H142.449V115.299H149.345V113.348Z" fill="white"/>
<path d="M169.462 113.348H153.042V115.299H169.462V113.348Z" fill="white"/>
<path d="M83.5034 106.842C83.5791 107.338 82.0476 107.267 82.0476 107.267C82.0476 107.267 82.1612 107.776 82.2285 108.436C82.2411 108.554 82.2495 108.68 82.258 108.807C82.3295 109.955 82.1907 111.339 81.1388 111.415C79.1613 111.562 77.5372 111.07 77.5372 111.07L77.6214 114.617H71.2134L70.4813 103.766L81.3408 101.031L82.1234 104.721C82.1233 104.721 83.4319 106.362 83.5034 106.842Z" fill="#FDCCC5"/>
<path d="M77.3254 104.911C78.546 103.727 78.9788 103.152 78.0016 102.233C78.0016 102.233 85.2285 101.6 83.682 97.0314C82.0902 92.3286 74.6449 96.819 74.6449 96.819C74.6449 96.819 68.2033 95.3543 67.0153 99.7552C66.0294 103.407 67.71 108.342 70.1882 109.445C71.4761 110.018 75.4598 109.584 75.6862 108.193C75.8358 107.273 73.5132 106.871 74.279 104.744C75.0447 102.617 77.5207 106.246 77.5207 106.246L77.3254 104.911Z" fill="url(#paint3_linear_7_2484)"/>
<path d="M76.9448 105.046C77.7793 106.03 77.9703 107.293 77.3748 107.865C76.7793 108.438 75.6196 108.108 74.785 107.124C73.9505 106.14 73.7575 104.875 74.353 104.302C74.9485 103.729 76.1102 104.062 76.9448 105.046Z" fill="#FDCCC5"/>
<path d="M77.5354 111.072C76.9557 110.957 76.2928 110.575 75.6084 110.124C76.1282 110.931 76.7691 111.547 77.5559 111.933L77.5354 111.072Z" fill="#EC8B73"/>
<path d="M92.0655 204.234C133.633 204.234 167.331 202.598 167.331 200.58C167.331 198.563 133.633 196.927 92.0655 196.927C50.4975 196.927 16.8 198.563 16.8 200.58C16.8 202.598 50.4975 204.234 92.0655 204.234Z" fill="#E7ECFF"/>
<path d="M161.6 151.869L159.916 154.426C159.391 155.223 158.5 155.703 157.546 155.703H33.8309C32.8766 155.703 31.9862 155.223 31.4612 154.426L29.7767 151.869C28.5337 149.983 29.887 147.471 32.1464 147.471H159.231C161.49 147.471 162.843 149.983 161.6 151.869Z" fill="url(#paint4_linear_7_2484)"/>
<path d="M161.602 151.87L159.916 154.425C159.391 155.224 158.499 155.703 157.548 155.703H33.83C32.8783 155.703 31.9865 155.224 31.4619 154.425L29.7758 151.87C29.3074 151.154 29.21 150.352 29.3861 149.633C29.4611 149.933 29.5884 150.229 29.7758 150.514L31.4619 153.069C31.9865 153.867 32.8783 154.347 33.83 154.347H157.548C158.499 154.347 159.391 153.867 159.916 153.069L161.602 150.514C161.789 150.229 161.917 149.933 161.991 149.633C162.168 150.353 162.07 151.154 161.602 151.87Z" fill="#ADC8F7"/>
<path d="M145.698 155.701L157.454 200.202H155.03L139.595 155.701H145.698Z" fill="url(#paint5_linear_7_2484)"/>
<path d="M127.838 155.701L139.595 200.202H137.17L121.735 155.701H127.838Z" fill="url(#paint6_linear_7_2484)"/>
<path d="M41.7915 155.701L30.035 200.202H32.4597L47.8947 155.701H41.7915Z" fill="url(#paint7_linear_7_2484)"/>
<path d="M65.7563 155.703L50.3191 200.201H47.8956L59.6513 155.703H65.7563Z" fill="url(#paint8_linear_7_2484)"/>
<path d="M142.262 119.839L135.796 145.593C135.449 146.967 134.05 148.081 132.669 148.081H130.47C131.851 148.081 133.25 146.967 133.594 145.593L140.06 119.839C140.406 118.465 139.565 117.351 138.184 117.351H140.386C141.767 117.351 142.606 118.465 142.262 119.839Z" fill="#78A7FF"/>
<path d="M140.061 119.839L133.595 145.594C133.25 146.967 131.851 148.081 130.47 148.081H94.3006C92.9195 148.081 92.0796 146.967 92.4244 145.594L98.8906 119.839C99.2354 118.465 100.634 117.352 102.015 117.352H138.185C139.566 117.352 140.406 118.465 140.061 119.839Z" fill="url(#paint9_linear_7_2484)"/>
<path d="M94.6855 146.547C94.1569 146.547 93.8342 146.12 93.9662 145.594L100.432 119.839C100.564 119.313 101.102 118.885 101.63 118.885H137.8C138.329 118.885 138.651 119.313 138.519 119.839L132.053 145.594C131.921 146.12 131.384 146.547 130.855 146.547H94.6855Z" fill="url(#paint10_linear_7_2484)"/>
<path d="M107.203 121.082L106.958 121.929H102.836L103.081 121.082H107.203Z" fill="white"/>
<path d="M106.633 123.055L106.389 123.902H102.267L102.511 123.055H106.633Z" fill="white"/>
<path d="M116.089 121.082H109.517L109.272 121.929H115.844L116.089 121.082Z" fill="white"/>
<path d="M127.327 121.082H117.978L117.734 121.929H127.082L127.327 121.082Z" fill="white"/>
<path d="M123.177 123.055L122.932 123.902H128.778L129.023 123.055H123.177Z" fill="white"/>
<path d="M120.591 123.055H108.947L108.702 123.902H120.347L120.591 123.055Z" fill="white"/>
<path d="M106.136 124.779L105.891 125.626H101.769L102.014 124.779H106.136Z" fill="white"/>
<path d="M105.566 126.752L105.322 127.599H101.199L101.444 126.752H105.566Z" fill="white"/>
<path d="M115.022 124.779H108.449L108.205 125.626H114.777L115.022 124.779Z" fill="white"/>
<path d="M133.441 124.779H116.911L116.667 125.626H133.197L133.441 124.779Z" fill="white"/>
<path d="M122.11 126.752L121.865 127.599H127.711L127.956 126.752H122.11Z" fill="white"/>
<path d="M119.524 126.752H107.88L107.635 127.599H119.279L119.524 126.752Z" fill="white"/>
<path d="M106.624 128.773L106.38 129.62H102.258L102.502 128.773H106.624Z" fill="white"/>
<path d="M106.055 130.746L105.81 131.593H101.688L101.933 130.746H106.055Z" fill="white"/>
<path d="M115.51 128.773H108.938L108.693 129.62H115.266L115.51 128.773Z" fill="white"/>
<path d="M126.748 128.773H117.4L117.155 129.62H126.504L126.748 128.773Z" fill="white"/>
<path d="M122.598 130.746L122.354 131.593H131.848L132.093 130.746H122.598Z" fill="white"/>
<path d="M120.013 130.746H108.368L108.124 131.593H119.768L120.013 130.746Z" fill="white"/>
<path d="M105.557 132.469L105.313 133.316H101.191L101.435 132.469H105.557Z" fill="white"/>
<path d="M104.988 134.442L104.743 135.289H100.621L100.866 134.442H104.988Z" fill="white"/>
<path d="M114.443 132.469H107.871L107.626 133.316H114.198L114.443 132.469Z" fill="white"/>
<path d="M125.681 132.469H116.333L116.088 133.316H125.437L125.681 132.469Z" fill="white"/>
<path d="M121.531 134.442L121.287 135.289L132.431 135.289L132.676 134.442L121.531 134.442Z" fill="white"/>
<path d="M118.946 134.442H107.301L107.057 135.289H118.701L118.946 134.442Z" fill="white"/>
<path d="M102.932 136.487L102.687 137.334H98.5652L98.8097 136.487H102.932Z" fill="white"/>
<path d="M102.362 138.46L102.118 139.307H97.9956L98.2402 138.46H102.362Z" fill="white"/>
<path d="M111.818 136.487H105.246L105.001 137.334H111.573L111.818 136.487Z" fill="white"/>
<path d="M123.056 136.487H113.707L113.463 137.334H122.811L123.056 136.487Z" fill="white"/>
<path d="M118.906 138.46L118.661 139.307H124.507L124.752 138.46H118.906Z" fill="white"/>
<path d="M116.32 138.46H104.676L104.431 139.307H116.076L116.32 138.46Z" fill="white"/>
<path d="M101.865 140.184L101.62 141.031H97.498L97.7426 140.184H101.865Z" fill="white"/>
<path d="M101.295 142.157L101.051 143.004H96.9285L97.173 142.157H101.295Z" fill="white"/>
<path d="M110.75 140.184H104.178L103.934 141.031H110.506L110.75 140.184Z" fill="white"/>
<path d="M121.989 140.184H112.64L112.396 141.031H121.744L121.989 140.184Z" fill="white"/>
<path d="M117.839 142.157L117.594 143.004H131.874L132.118 142.157H117.839Z" fill="white"/>
<path d="M106.582 142.157H103.609L103.364 143.004H106.337L106.582 142.157Z" fill="white"/>
<path d="M108.175 142.157L107.93 143.004H115.008L115.253 142.157H108.175Z" fill="white"/>
<path d="M119.103 148.081V150.293H92.6036C91.3815 150.293 90.3909 149.303 90.3909 148.081H119.103Z" fill="url(#paint11_linear_7_2484)"/>
<path d="M134.686 148.081C134.686 149.303 133.696 150.293 132.474 150.293H114.115C112.893 150.293 111.902 149.303 111.902 148.081H134.686Z" fill="url(#paint12_linear_7_2484)"/>
<path d="M121.735 211.194C121.735 212.554 106.879 213.66 88.556 213.66C70.2301 213.66 55.3744 212.554 55.3744 211.194C55.3744 209.834 70.2301 208.729 88.556 208.729C106.879 208.729 121.735 209.834 121.735 211.194Z" fill="#E7ECFF"/>
<path d="M82.535 201.78H77.3643V207.128H82.535V201.78Z" fill="#FDCCC5"/>
<path d="M92.3719 209.18C92.3719 209.183 92.3719 209.183 92.3719 209.183V209.194C92.4036 209.751 92.0861 210.27 91.5673 210.496C90.5686 210.93 88.6454 211.498 86.1153 211.004C82.3323 210.26 78.8 210.69 77.399 210.828C76.905 210.877 76.6367 210.171 76.5591 209.208C76.5556 209.166 76.5521 209.123 76.5521 209.081C76.4568 207.528 76.852 205.404 77.6284 204.691C77.6778 204.645 77.7272 204.606 77.7801 204.571C77.8436 204.529 77.9107 204.497 77.9813 204.476C79.0258 204.158 81.0161 206.755 82.2547 205.379C82.3923 205.231 82.35 204.945 82.2865 204.606C82.2583 204.454 82.2265 204.289 82.2018 204.123C82.1793 203.961 82.2208 203.793 82.2911 203.636C82.4722 203.231 83.0076 203.135 83.3376 203.432C83.6002 203.668 83.9728 203.99 84.4814 204.405C84.5732 204.479 84.6614 204.567 84.7532 204.656C84.8167 204.712 84.8802 204.772 84.9472 204.832C85.1802 205.054 85.4166 205.252 85.6495 205.428C85.7483 205.506 85.8471 205.577 85.9424 205.647C86.1965 205.82 86.4434 205.975 86.694 206.113C86.7998 206.173 86.9057 206.23 87.0151 206.282C89.1783 207.348 91.0768 207.091 91.7508 207.712C92.1778 208.1 92.326 208.668 92.3684 209.155C92.3719 209.162 92.3719 209.173 92.3719 209.18Z" fill="url(#paint13_linear_7_2484)"/>
<path d="M77.1576 209.566C77.1576 209.566 76.461 207.866 77.5094 206.278C77.5094 206.278 78.8814 207.799 80.231 207.681C81.5806 207.564 83.0238 205.885 83.0238 205.885C83.0238 205.885 83.0429 206.469 82.4701 207.327C82.4701 207.327 83.2781 207.294 83.9364 206.47C83.9364 206.47 83.9591 207.197 83.2384 207.866C83.2384 207.866 84.2102 207.764 84.9799 207.179C84.9799 207.179 84.7033 207.92 84.0677 208.346C84.0677 208.346 85.1526 209.383 85.8217 209.389L84.0222 210.276L77.6405 210.445L77.1576 209.566Z" fill="#F9C55F"/>
<path d="M91.5689 210.497C90.57 210.928 88.6449 211.496 86.1166 211.003C82.3323 210.258 78.8009 210.69 77.3976 210.829C76.9059 210.877 76.6356 210.169 76.5589 209.209C76.556 209.167 76.553 209.124 76.5529 209.08C78.8185 208.096 82.2958 208.267 85.0292 209.507C88.0213 210.862 91.4344 210.116 92.3634 209.18C92.3662 209.178 92.3686 209.178 92.3706 209.181C92.3726 209.183 92.3702 209.183 92.3702 209.183C92.3722 209.186 92.3715 209.191 92.371 209.193C92.4052 209.751 92.0871 210.272 91.5689 210.497Z" fill="#070159"/>
<path d="M84.7543 204.655C84.5426 204.981 84.1478 205.429 83.491 205.709C83.4388 205.733 83.3784 205.727 83.3319 205.7C83.2981 205.681 83.2703 205.652 83.2527 205.614C83.2128 205.522 83.2561 205.415 83.3482 205.376C83.9572 205.115 84.3055 204.685 84.4802 204.405C84.5696 204.484 84.6609 204.568 84.7543 204.655Z" fill="white"/>
<path d="M85.9433 205.646C85.7215 205.955 85.2832 206.426 84.5554 206.675C84.5035 206.693 84.4517 206.686 84.4073 206.661C84.3694 206.639 84.3385 206.605 84.3244 206.561C84.2911 206.467 84.342 206.362 84.438 206.33C85.0765 206.111 85.4621 205.694 85.6501 205.43C85.7483 205.508 85.8458 205.577 85.9433 205.646Z" fill="white"/>
<path d="M87.0154 206.281C86.8355 206.6 86.4296 207.162 85.664 207.492C85.6106 207.518 85.5501 207.512 85.5037 207.485C85.4699 207.466 85.442 207.437 85.4256 207.397C85.3857 207.305 85.429 207.198 85.5211 207.158C86.1857 206.874 86.5391 206.385 86.6928 206.113C86.8016 206.172 86.9084 206.229 87.0154 206.281Z" fill="white"/>
<path d="M82.3852 205.167C82.3569 205.488 82.2016 205.802 81.937 205.99C81.75 206.12 81.5171 206.18 81.2877 206.191C81.0548 206.201 80.8254 206.162 80.6031 206.109C80.3208 206.046 80.042 205.961 79.7739 205.855C79.2904 205.665 78.8317 205.411 78.4117 205.104C78.2035 204.949 78.0059 204.783 77.8188 204.603C77.8083 204.592 77.7941 204.581 77.78 204.571C77.8435 204.529 77.9106 204.497 77.9812 204.476C79.0257 204.158 81.016 206.755 82.2546 205.379C82.3923 205.231 82.3499 204.945 82.2864 204.606C82.3781 204.776 82.4028 204.973 82.3852 205.167Z" fill="#070159"/>
<path d="M87.8551 163.275C86.4525 160.292 80.1871 157.749 73.8655 155.879L72.2725 167.396C73.9622 167.396 76.589 170.228 76.589 170.228L76.1058 202.863C76.1058 203.639 83.1037 203.639 83.1037 202.863C83.1037 202.863 90.8829 169.713 87.8551 163.275Z" fill="url(#paint14_linear_7_2484)"/>
<path d="M106.111 201.78C105.384 203.763 105.592 205.489 106.111 207.128H101.359V201.78H106.111Z" fill="#FDCCC5"/>
<path d="M82.5459 153.703C82.5459 153.703 108.032 156.8 111.06 163.238C114.088 169.676 106.884 202.938 106.884 202.938C106.884 203.936 100.481 203.861 100.481 202.863L100.974 169.544C100.974 169.544 75.9027 171.66 70.0901 168.819C63.4871 165.591 67.8989 152.009 67.8989 152.009L82.5459 153.703Z" fill="url(#paint15_linear_7_2484)"/>
<path d="M115.673 210.127C115.673 210.131 115.673 210.131 115.673 210.131V210.141C115.705 210.699 115.387 211.218 114.869 211.444C113.87 211.878 111.947 212.446 109.417 211.952C105.634 211.207 102.101 211.638 100.7 211.775C100.206 211.825 99.938 211.119 99.8604 210.155C99.8568 210.113 99.8533 210.071 99.8533 210.028C99.7581 208.476 100.153 206.351 100.93 205.638C100.979 205.593 101.028 205.554 101.081 205.518C101.145 205.476 101.212 205.444 101.282 205.423C102.327 205.106 104.317 207.703 105.556 206.327C105.694 206.178 105.651 205.893 105.588 205.554C105.559 205.402 105.528 205.236 105.503 205.07C105.481 204.909 105.522 204.741 105.592 204.583C105.773 204.178 106.309 204.083 106.639 204.379C106.901 204.615 107.274 204.938 107.783 205.353C107.874 205.427 107.963 205.515 108.054 205.603C108.118 205.66 108.181 205.72 108.248 205.78C108.481 206.002 108.718 206.2 108.951 206.376C109.05 206.454 109.148 206.524 109.244 206.595C109.498 206.768 109.745 206.923 109.995 207.061C110.101 207.121 110.207 207.177 110.316 207.23C112.479 208.296 114.378 208.038 115.052 208.659C115.479 209.047 115.627 209.615 115.67 210.102C115.673 210.11 115.673 210.12 115.673 210.127Z" fill="url(#paint16_linear_7_2484)"/>
<path d="M100.459 210.514C100.459 210.514 99.7622 208.813 100.811 207.225C100.811 207.225 102.183 208.746 103.532 208.629C104.882 208.511 106.325 206.833 106.325 206.833C106.325 206.833 106.344 207.416 105.771 208.275C105.771 208.275 106.579 208.242 107.238 207.418C107.238 207.418 107.26 208.144 106.54 208.814C106.54 208.814 107.511 208.712 108.281 208.126C108.281 208.126 108.005 208.868 107.369 209.293C107.369 209.293 108.454 210.331 109.123 210.337L107.323 211.224L100.942 211.392L100.459 210.514Z" fill="#F9C55F"/>
<path d="M114.87 211.444C113.871 211.876 111.946 212.444 109.418 211.951C105.634 211.206 102.102 211.637 100.699 211.777C100.207 211.824 99.937 211.117 99.8603 210.156C99.8574 210.114 99.8544 210.072 99.8542 210.028C102.12 209.044 105.597 209.215 108.331 210.454C111.323 211.809 114.736 211.064 115.665 210.127C115.668 210.125 115.67 210.126 115.672 210.128C115.674 210.131 115.672 210.131 115.672 210.131C115.674 210.133 115.673 210.138 115.672 210.141C115.707 210.699 115.388 211.219 114.87 211.444Z" fill="#070159"/>
<path d="M108.056 205.602C107.844 205.928 107.449 206.376 106.792 206.657C106.74 206.681 106.68 206.674 106.633 206.648C106.599 206.629 106.572 206.599 106.554 206.562C106.514 206.47 106.557 206.363 106.649 206.323C107.258 206.063 107.607 205.633 107.781 205.353C107.871 205.431 107.962 205.516 108.056 205.602Z" fill="white"/>
<path d="M109.245 206.593C109.023 206.902 108.585 207.373 107.857 207.622C107.805 207.64 107.753 207.633 107.709 207.608C107.671 207.587 107.64 207.553 107.626 207.509C107.592 207.415 107.643 207.31 107.739 207.278C108.378 207.059 108.763 206.642 108.951 206.378C109.05 206.455 109.147 206.524 109.245 206.593Z" fill="white"/>
<path d="M110.317 207.229C110.137 207.548 109.731 208.109 108.965 208.44C108.912 208.466 108.851 208.459 108.805 208.433C108.771 208.414 108.743 208.384 108.727 208.344C108.687 208.252 108.73 208.146 108.822 208.106C109.487 207.821 109.84 207.333 109.994 207.061C110.103 207.119 110.21 207.177 110.317 207.229Z" fill="white"/>
<path d="M105.687 206.115C105.658 206.436 105.503 206.75 105.238 206.937C105.051 207.068 104.818 207.128 104.589 207.138C104.356 207.149 104.127 207.11 103.904 207.057C103.622 206.994 103.343 206.909 103.075 206.803C102.592 206.612 102.133 206.358 101.713 206.051C101.505 205.896 101.307 205.73 101.12 205.55C101.11 205.54 101.095 205.529 101.081 205.519C101.145 205.476 101.212 205.444 101.282 205.423C102.327 205.106 104.317 207.703 105.556 206.327C105.693 206.178 105.651 205.893 105.588 205.554C105.679 205.723 105.704 205.921 105.687 206.115Z" fill="#070159"/>
<path d="M86.4555 119.273C87.7521 140.478 86.5078 154.092 86.5078 154.092C86.5077 156.9 59.8958 161.64 59.896 158.832C59.896 158.832 56.0096 124.553 62.6013 117.806C66.523 113.791 86.1187 113.766 86.4555 119.273Z" fill="url(#paint17_linear_7_2484)"/>
<path d="M78.709 115.143C78.6536 117.033 76.7222 116.105 74.2673 116.033C71.8125 115.961 69.7653 116.773 69.8207 114.883C69.8758 112.999 71.8042 112.51 74.259 112.581C76.7139 112.653 78.7641 113.259 78.709 115.143Z" fill="url(#paint18_linear_7_2484)"/>
<path d="M119.9 142.573C118.52 140.977 115.608 142.078 115.608 142.078C115.608 142.078 116.357 140.077 115.552 139.396C114.747 138.714 114.863 140.531 114.274 141.354C113.817 141.992 112.476 142.032 111.896 142.018V144.887C116.728 147.591 116.821 143.956 118.035 144.538C119.29 145.14 119.676 146.075 120.493 145.681C121.187 145.347 120.736 143.54 119.9 142.573Z" fill="#FDCCC5"/>
<path d="M80.249 119.73C77.586 126.605 86.1265 141.892 92.772 145.086C97.2782 147.252 112.755 145.877 112.755 145.877C113.491 145.877 113.491 141.633 112.755 141.633C112.755 141.633 99.6094 140.904 97.5735 138.376C93.3761 133.165 90.8233 119.387 85.0862 117.157C83.5837 116.574 81.062 117.631 80.249 119.73Z" fill="url(#paint19_linear_7_2484)"/>
<path d="M49.2476 130.362C51.0783 125.594 66.4853 126.303 70.2523 129.753C76.2216 135.22 70.6578 158.447 76.4901 164.827C79.8011 168.448 90.9382 167.211 95.7512 168.136C97.7708 168.524 98.0595 173.024 98.0855 175.071C98.0928 175.649 97.6747 176.133 97.1017 176.209C91.2525 176.992 60.6443 179.287 53.5369 172.225C45.9948 164.731 46.6604 137.102 49.2476 130.362Z" fill="url(#paint20_linear_7_2484)"/>
<path d="M58.9235 126.98C62.3289 127.355 65.4176 128.269 66.8477 129.564C72.806 135.026 67.2504 158.255 73.0731 164.637C75.0941 166.843 80.0168 167.251 84.631 167.44C81.1881 167.131 77.9996 166.498 76.4889 164.827C70.6661 158.444 76.2218 135.216 70.2467 129.753C68.3519 128.01 63.4975 126.981 58.9235 126.98Z" fill="url(#paint21_linear_7_2484)"/>
<path d="M86.0346 176.814V178.507C86.0346 179.349 85.3523 180.031 84.5106 180.031H69.3874C68.5458 180.031 67.8635 179.349 67.8635 178.507V176.693L86.0346 176.814Z" fill="#070159"/>
<path d="M78.7042 180.031H75.194V204.801H78.7042V180.031Z" fill="url(#paint22_linear_7_2484)"/>
<path d="M82.5732 206.16V207.227H71.3248V206.16C71.3248 205.409 71.9337 204.8 72.6848 204.8H81.2133C81.9644 204.8 82.5732 205.409 82.5732 206.16Z" fill="url(#paint23_linear_7_2484)"/>
<path d="M89.1293 211.454V210.085C89.1293 208.507 87.8497 207.227 86.2713 207.227H67.6267C66.0483 207.227 64.7687 208.507 64.7687 210.085V211.454H89.1293Z" fill="url(#paint24_linear_7_2484)"/>
<path d="M81.4403 104.212C81.4403 104.403 81.2865 104.554 81.0976 104.554C80.9087 104.554 80.7549 104.403 80.7549 104.212C80.7549 104.023 80.9087 103.871 81.0976 103.871C81.2865 103.871 81.4403 104.023 81.4403 104.212Z" fill="#070159"/>
<path d="M81.3162 102.773C81.3303 102.85 81.2703 102.917 81.2103 102.97C80.9104 103.249 80.6104 103.528 80.3069 103.807C80.2222 103.888 80.134 103.969 80.0211 104.004C79.9081 104.043 79.7705 104.018 79.7035 103.92C79.6435 103.824 79.6717 103.694 79.7423 103.606C79.7741 103.563 80.5363 102.826 81.0021 102.681C81.0621 102.663 81.1221 102.649 81.1856 102.66C81.2456 102.667 81.3056 102.713 81.3162 102.773Z" fill="url(#paint25_linear_7_2484)"/>
<path d="M82.258 108.807C82.0014 108.912 81.7237 108.937 81.4544 108.882C81.223 108.832 80.9958 108.722 80.8106 108.55C80.7349 108.487 80.7307 108.377 80.798 108.306C80.8611 108.23 80.9747 108.226 81.0462 108.289C81.3786 108.596 81.8541 108.638 82.2285 108.436C82.2412 108.554 82.2496 108.68 82.258 108.807Z" fill="#EC8B73"/>
<path d="M144.381 147.43C144.381 148.279 145.07 148.968 145.92 148.968H153.04V145.891H145.92C145.07 145.891 144.381 146.58 144.381 147.43Z" fill="url(#paint26_linear_7_2484)"/>
<path d="M145.041 147.43C145.041 148.005 145.507 148.472 146.083 148.472H153.04V146.387H146.083C145.507 146.387 145.041 146.854 145.041 147.43Z" fill="url(#paint27_linear_7_2484)"/>
<path d="M137.425 147.429C137.425 148.278 138.114 148.968 138.963 148.968H145.92C145.071 148.968 144.381 148.278 144.381 147.429C144.381 146.581 145.071 145.891 145.92 145.891H138.963C138.114 145.891 137.425 146.581 137.425 147.429Z" fill="url(#paint28_linear_7_2484)"/>
<path d="M146.083 150.506C146.083 151.355 145.394 152.044 144.545 152.044H137.425V148.968H144.545C145.394 148.968 146.083 149.656 146.083 150.506Z" fill="url(#paint29_linear_7_2484)"/>
<path d="M145.424 150.506C145.424 151.081 144.957 151.548 144.381 151.548H137.425V149.464H144.381C144.957 149.464 145.424 149.93 145.424 150.506Z" fill="url(#paint30_linear_7_2484)"/>
<path d="M153.04 150.506C153.04 151.355 152.35 152.044 151.501 152.044H144.545C145.393 152.044 146.083 151.355 146.083 150.506C146.083 149.657 145.393 148.968 144.545 148.968H151.501C152.35 148.968 153.04 149.657 153.04 150.506Z" fill="url(#paint31_linear_7_2484)"/>
<path d="M155.738 187.601C155.661 186.26 156.256 184.048 156.827 182.832C157.398 181.616 158.219 180.528 159.16 179.57C159.804 178.914 160.517 178.308 161.346 177.911C162.176 177.514 163.135 177.339 164.027 177.563C164.919 177.788 165.721 178.451 165.981 179.332C166.144 179.882 166.093 180.478 165.927 181.026C165.533 182.324 164.52 183.364 163.36 184.068C162.2 184.773 160.89 185.183 159.594 185.586C158.298 185.989 156.899 186.899 155.738 187.601Z" fill="url(#paint32_linear_7_2484)"/>
<path d="M153.47 188.891C153.546 187.549 152.951 185.337 152.38 184.121C151.809 182.905 150.988 181.818 150.047 180.859C149.403 180.203 148.69 179.597 147.861 179.2C147.032 178.803 146.072 178.629 145.18 178.853C144.289 179.077 143.487 179.74 143.226 180.621C143.063 181.171 143.114 181.767 143.28 182.315C143.674 183.614 144.687 184.653 145.847 185.358C147.007 186.062 148.318 186.472 149.614 186.875C150.909 187.278 152.308 188.189 153.47 188.891Z" fill="url(#paint33_linear_7_2484)"/>
<path d="M153.895 185.527C153.895 185.527 142.271 168.209 153.4 166.072C164.222 163.993 153.895 185.527 153.895 185.527Z" fill="url(#paint34_linear_7_2484)"/>
<path d="M154.712 191.108C154.656 191.108 154.61 191.062 154.61 191.005C154.606 185.973 162.33 180.237 162.659 179.995C162.705 179.961 162.769 179.971 162.802 180.017C162.836 180.062 162.826 180.127 162.78 180.16C162.701 180.219 154.81 186.077 154.815 191.005C154.815 191.062 154.769 191.108 154.712 191.108Z" fill="#ADC8F7"/>
<path d="M154.025 190.981C153.971 190.981 153.926 190.939 153.923 190.884C153.721 186.583 145.498 181.135 145.414 181.081C145.367 181.05 145.354 180.986 145.385 180.939C145.416 180.891 145.48 180.878 145.527 180.909C145.87 181.134 153.921 186.469 154.128 190.874C154.13 190.93 154.087 190.979 154.03 190.981C154.029 190.981 154.027 190.981 154.025 190.981Z" fill="#ADC8F7"/>
<path d="M154.85 191.108C154.804 191.108 154.763 191.078 154.751 191.031C152.765 183.398 153.499 169.837 153.507 169.701C153.51 169.645 153.556 169.601 153.615 169.605C153.671 169.608 153.714 169.656 153.711 169.713C153.704 169.848 152.971 183.378 154.949 190.98C154.963 191.035 154.93 191.09 154.876 191.105C154.867 191.107 154.858 191.108 154.85 191.108Z" fill="#ADC8F7"/>
<path d="M159.853 190.175C160.191 190.175 160.464 190.449 160.464 190.786V195.29C160.464 197.823 158.908 199.978 156.71 200.884C156.629 200.917 156.541 200.934 156.453 200.934H152.312C152.225 200.934 152.136 200.917 152.055 200.884C149.857 199.978 148.301 197.823 148.301 195.29V190.786C148.301 190.449 148.575 190.175 148.912 190.175H159.853Z" fill="url(#paint35_linear_7_2484)"/>
<path d="M160.464 192.512V190.786C160.464 190.449 160.19 190.175 159.853 190.175H148.912C148.575 190.175 148.301 190.449 148.301 190.786V192.512H160.464Z" fill="#78A7FF"/>
<path d="M156.591 196.008C156.591 197.226 155.602 198.215 154.383 198.215C153.162 198.215 152.176 197.226 152.176 196.008C152.176 194.786 153.162 193.797 154.383 193.797C155.602 193.797 156.591 194.786 156.591 196.008Z" fill="#78A7FF"/>
<path d="M134.031 33.2141H133.628V30.6561C133.628 28.4985 131.872 26.743 129.715 26.743H127.063V26.3403H129.715C132.095 26.3403 134.031 28.2763 134.031 30.6561L134.031 33.2141Z" fill="#B7BCFF"/>
<path d="M129.668 68.3283H127.11V67.9256H129.668C131.825 67.9256 133.581 66.1701 133.581 64.0125V61.3608H133.983V64.0125C133.983 66.3923 132.048 68.3283 129.668 68.3283Z" fill="#B7BCFF"/>
<path d="M82.4594 33.2141H82.0566V30.6561C82.0566 28.2763 83.9924 26.3403 86.3722 26.3403H89.0242V26.743H86.3722C84.2146 26.743 82.4594 28.4985 82.4594 30.6561V33.2141Z" fill="#B7BCFF"/>
<path d="M88.9774 68.3283H86.4194C84.0396 68.3283 82.1034 66.3923 82.1034 64.0125V61.3607H82.5061V64.0125C82.5061 66.1701 84.2618 67.9255 86.4194 67.9255H88.9773L88.9774 68.3283Z" fill="#B7BCFF"/>
<path d="M131.729 30.6559V64.0126C131.729 65.1253 130.827 66.0273 129.715 66.0273H86.3723C85.2596 66.0273 84.3577 65.1253 84.3577 64.0126V30.6559C84.3577 29.5433 85.2597 28.6412 86.3723 28.6412H129.715C130.827 28.6412 131.729 29.5433 131.729 30.6559Z" fill="url(#paint36_linear_7_2484)"/>
<path d="M104.663 38.5723V47.0269C104.663 47.4438 104.325 47.7817 103.908 47.7817H88.923C88.5061 47.7817 88.1682 47.4438 88.1682 47.0269V38.5723C88.1682 38.1554 88.5061 37.8175 88.923 37.8175H103.908C104.325 37.8175 104.663 38.1554 104.663 38.5723Z" fill="#ADC8F7"/>
<path d="M131.73 30.6557V35.4708H98.6071C98.2572 35.4708 97.93 35.2977 97.733 35.0085L96.4415 33.1125C96.2445 32.8233 95.9173 32.6502 95.5674 32.6502H91.0309C90.681 32.6502 90.3537 32.8233 90.1568 33.1125L88.8653 35.0085C88.6683 35.2977 88.341 35.4708 87.9912 35.4708H84.3582V30.6557C84.3582 29.5424 85.2607 28.6399 86.374 28.6399H129.714C130.827 28.6399 131.73 29.5424 131.73 30.6557Z" fill="url(#paint37_linear_7_2484)"/>
<path d="M129.535 32.1114C129.535 32.9328 128.869 33.5987 128.048 33.5987H104.388C103.567 33.5987 102.901 32.9328 102.901 32.1114C102.901 31.29 103.567 30.6241 104.388 30.6241H128.048C128.869 30.6241 129.535 31.29 129.535 32.1114Z" fill="url(#paint38_linear_7_2484)"/>
<path d="M128.048 30.6241H126.593V33.5987H128.048C128.869 33.5987 129.535 32.9328 129.535 32.1114C129.535 31.29 128.869 30.6241 128.048 30.6241Z" fill="#3D79F3"/>
<path d="M127.829 32.5705C127.676 32.5705 127.531 32.5105 127.422 32.4014C127.313 32.2926 127.253 32.1479 127.253 31.9937C127.253 31.8396 127.313 31.695 127.422 31.5863C127.638 31.3696 128.02 31.3696 128.237 31.5863C128.346 31.6951 128.405 31.8398 128.405 31.9937C128.405 32.1479 128.346 32.2926 128.237 32.4014C128.128 32.5105 127.983 32.5705 127.829 32.5705ZM127.829 31.6197C127.729 31.6197 127.635 31.6585 127.564 31.7287C127.493 31.7995 127.454 31.8935 127.454 31.9937C127.454 32.094 127.493 32.1882 127.564 32.259C127.707 32.401 127.952 32.401 128.094 32.259C128.165 32.1882 128.204 32.0941 128.204 31.9937C128.204 31.8935 128.165 31.7994 128.094 31.7287C128.024 31.6585 127.93 31.6197 127.829 31.6197Z" fill="white"/>
<path d="M128.539 32.8047C128.514 32.8047 128.488 32.7948 128.468 32.7752L128.094 32.4013C128.055 32.362 128.055 32.2983 128.094 32.259C128.134 32.2197 128.197 32.2197 128.237 32.259L128.611 32.6328C128.65 32.6721 128.65 32.7359 128.611 32.7752C128.591 32.7948 128.565 32.8047 128.539 32.8047Z" fill="white"/>
<path d="M94.0284 44.5604L91.1554 43.2714C91.0736 43.233 91.0103 43.1815 90.9647 43.1166C90.9191 43.0517 90.8962 42.9786 90.8962 42.897V42.8394C90.8962 42.7578 90.919 42.6846 90.9647 42.6197C91.0103 42.555 91.0736 42.5035 91.1554 42.465L94.0284 41.1762C94.067 41.1616 94.1051 41.1545 94.1437 41.1545C94.2255 41.1545 94.2939 41.182 94.349 41.2373C94.404 41.2926 94.432 41.361 94.432 41.4424C94.432 41.5002 94.4139 41.5541 94.3777 41.6045C94.3419 41.655 94.2951 41.6922 94.2373 41.7162L91.6451 42.8681L94.2373 44.0203C94.2951 44.0445 94.3419 44.0814 94.3777 44.132C94.4139 44.1823 94.432 44.2364 94.432 44.294C94.432 44.3756 94.404 44.4441 94.349 44.4991C94.2939 44.5544 94.2255 44.5821 94.1437 44.5821C94.1051 44.582 94.067 44.5748 94.0284 44.5604Z" fill="white"/>
<path d="M95.2487 45.5971C95.1937 45.5397 95.1661 45.4699 95.1661 45.3883C95.1661 45.3596 95.1732 45.3236 95.1874 45.2803L97.0956 39.6999C97.1148 39.6423 97.1483 39.5943 97.1967 39.5559C97.2442 39.5176 97.3044 39.4984 97.3764 39.4984C97.4629 39.4984 97.5337 39.5271 97.5888 39.5847C97.6443 39.6423 97.6718 39.712 97.6718 39.7936C97.6718 39.8224 97.6648 39.8584 97.6502 39.9015L95.7419 45.4819C95.7227 45.5397 95.6892 45.5875 95.6412 45.6261C95.5932 45.6644 95.5331 45.6837 95.4611 45.6837C95.375 45.6837 95.3038 45.655 95.2487 45.5971Z" fill="white"/>
<path d="M98.4817 44.4991C98.4266 44.444 98.399 44.3756 98.399 44.294C98.399 44.2364 98.4171 44.1823 98.453 44.1319C98.4891 44.0814 98.5359 44.0444 98.5934 44.0202L101.186 42.8681L98.5934 41.7161C98.5359 41.6921 98.4891 41.655 98.453 41.6044C98.4171 41.5541 98.399 41.5002 98.399 41.4424C98.399 41.361 98.4265 41.2925 98.4817 41.2373C98.5371 41.182 98.6055 41.1545 98.687 41.1545C98.7302 41.1545 98.7687 41.1615 98.8022 41.1761L101.675 42.4649C101.757 42.5035 101.82 42.555 101.866 42.6197C101.912 42.6846 101.934 42.7577 101.934 42.8393V42.8969C101.934 42.9785 101.912 43.0517 101.866 43.1166C101.82 43.1815 101.757 43.233 101.675 43.2713L98.8022 44.5604C98.7687 44.5747 98.7302 44.582 98.687 44.582C98.6055 44.582 98.5371 44.5543 98.4817 44.4991Z" fill="white"/>
<path d="M93.1115 50.117C93.1115 50.4182 92.8673 50.6625 92.566 50.6625H88.7137C88.4125 50.6625 88.1682 50.4183 88.1682 50.117C88.1682 49.8157 88.4124 49.5715 88.7137 49.5715H92.566C92.8673 49.5715 93.1115 49.8157 93.1115 50.117Z" fill="white"/>
<path d="M93.1115 52.6579C93.1115 52.9592 92.8673 53.2034 92.566 53.2034H88.7137C88.4125 53.2034 88.1682 52.9592 88.1682 52.6579C88.1682 52.3566 88.4124 52.1124 88.7137 52.1124H92.566C92.8673 52.1124 93.1115 52.3566 93.1115 52.6579Z" fill="white"/>
<path d="M115.4 49.5715H96.4316C96.1303 49.5715 95.8861 49.8158 95.8861 50.1171C95.8861 50.4183 96.1303 50.6626 96.4316 50.6626H115.4C115.701 50.6626 115.945 50.4184 115.945 50.1171C115.945 49.8158 115.701 49.5715 115.4 49.5715Z" fill="white"/>
<path d="M112.951 52.6578C112.951 52.9591 113.195 53.2034 113.496 53.2034H119.416C119.717 53.2034 119.961 52.9592 119.961 52.6579C119.961 52.3566 119.717 52.1123 119.416 52.1123H113.496C113.195 52.1123 112.951 52.3565 112.951 52.6578Z" fill="white"/>
<path d="M109.304 52.1123H96.4316C96.1303 52.1123 95.8861 52.3565 95.8861 52.6578C95.8861 52.9591 96.1303 53.2034 96.4316 53.2034H109.304C109.606 53.2034 109.85 52.9592 109.85 52.6579C109.85 52.3566 109.606 52.1123 109.304 52.1123Z" fill="white"/>
<path d="M93.1115 54.8772C93.1115 55.1784 92.8673 55.4227 92.566 55.4227H88.7137C88.4125 55.4227 88.1682 55.1785 88.1682 54.8772C88.1682 54.5759 88.4124 54.3317 88.7137 54.3317H92.566C92.8673 54.3317 93.1115 54.5759 93.1115 54.8772Z" fill="white"/>
<path d="M93.1115 57.4181C93.1115 57.7193 92.8673 57.9636 92.566 57.9636H88.7137C88.4125 57.9636 88.1682 57.7194 88.1682 57.4181C88.1682 57.1168 88.4124 56.8726 88.7137 56.8726H92.566C92.8673 56.8726 93.1115 57.1168 93.1115 57.4181Z" fill="white"/>
<path d="M103.222 54.3317H96.4316C96.1303 54.3317 95.8861 54.5759 95.8861 54.8772C95.8861 55.1785 96.1303 55.4228 96.4316 55.4228H103.222C103.523 55.4228 103.767 55.1786 103.767 54.8773C103.767 54.576 103.523 54.3317 103.222 54.3317Z" fill="white"/>
<path d="M125.311 54.3317H106.579C106.278 54.3317 106.033 54.5759 106.033 54.8772C106.033 55.1785 106.278 55.4228 106.579 55.4228H125.311C125.612 55.4228 125.857 55.1786 125.857 54.8773C125.857 54.576 125.612 54.3317 125.311 54.3317Z" fill="white"/>
<path d="M109.304 56.8725H96.4316C96.1303 56.8725 95.8861 57.1167 95.8861 57.418C95.8861 57.7193 96.1303 57.9636 96.4316 57.9636H109.304C109.606 57.9636 109.85 57.7194 109.85 57.4181C109.85 57.1168 109.606 56.8725 109.304 56.8725Z" fill="white"/>
<path d="M95.0801 60.0204C95.0801 60.3216 94.8359 60.5659 94.5346 60.5659H90.6824C90.3811 60.5659 90.1368 60.3217 90.1368 60.0204C90.1368 59.7191 90.3811 59.4749 90.6824 59.4749H94.5346C94.8359 59.4749 95.0801 59.7191 95.0801 60.0204Z" fill="white"/>
<path d="M95.0801 62.5612C95.0801 62.8625 94.8359 63.1067 94.5346 63.1067H90.6824C90.3811 63.1067 90.1368 62.8625 90.1368 62.5612C90.1368 62.26 90.3811 62.0157 90.6824 62.0157H94.5346C94.8359 62.0157 95.0801 62.26 95.0801 62.5612Z" fill="white"/>
<path d="M105.191 59.4749H98.4003C98.099 59.4749 97.8547 59.7191 97.8547 60.0204C97.8547 60.3216 98.099 60.5659 98.4003 60.5659H105.191C105.492 60.5659 105.736 60.3217 105.736 60.0204C105.736 59.7191 105.492 59.4749 105.191 59.4749Z" fill="white"/>
<path d="M118.667 59.4749H108.548C108.246 59.4749 108.002 59.7191 108.002 60.0204C108.002 60.3216 108.246 60.5659 108.548 60.5659H118.667C118.969 60.5659 119.213 60.3217 119.213 60.0204C119.213 59.7191 118.969 59.4749 118.667 59.4749Z" fill="white"/>
<path d="M114.919 62.5611C114.919 62.8624 115.164 63.1067 115.465 63.1067H125.76C126.061 63.1067 126.306 62.8625 126.306 62.5612C126.306 62.2599 126.061 62.0156 125.76 62.0156H115.465C115.164 62.0156 114.919 62.2599 114.919 62.5611Z" fill="white"/>
<path d="M111.273 62.0156H98.4003C98.099 62.0156 97.8547 62.2598 97.8547 62.5611C97.8547 62.8624 98.099 63.1067 98.4003 63.1067H111.273C111.574 63.1067 111.819 62.8625 111.819 62.5612C111.819 62.2599 111.574 62.0156 111.273 62.0156Z" fill="white"/>
<path d="M123.68 39.5555C123.68 39.8439 123.447 40.0776 123.158 40.0776H112.671C112.382 40.0776 112.148 39.8439 112.148 39.5555C112.148 39.2671 112.382 39.0334 112.671 39.0334H123.158C123.447 39.0334 123.68 39.2671 123.68 39.5555Z" fill="white"/>
<path d="M111.792 41.7552H108.523C108.235 41.7552 108.001 41.989 108.001 42.2773V42.2774C108.001 42.5658 108.235 42.7995 108.523 42.7995H111.792C112.081 42.7995 112.314 42.5658 112.314 42.2774V42.2773C112.314 41.989 112.081 41.7552 111.792 41.7552Z" fill="white"/>
<path d="M114.506 42.2773V42.2774C114.506 42.5658 114.74 42.7995 115.028 42.7995H127.306C127.594 42.7995 127.828 42.5658 127.828 42.2774V42.2773C127.828 41.989 127.594 41.7552 127.306 41.7552H115.028C114.74 41.7552 114.506 41.989 114.506 42.2773Z" fill="white"/>
<path d="M120.235 44.4772H108.523C108.235 44.4772 108.001 44.711 108.001 44.9993V44.9994C108.001 45.2878 108.235 45.5215 108.523 45.5215H120.235C120.524 45.5215 120.758 45.2878 120.758 44.9994V44.9993C120.758 44.711 120.524 44.4772 120.235 44.4772Z" fill="white"/>
<path d="M124.086 44.9994V44.9995C124.086 45.2878 124.32 45.5216 124.608 45.5216H127.306C127.594 45.5216 127.828 45.2878 127.828 44.9995V44.9994C127.828 44.7111 127.594 44.4773 127.306 44.4773H124.608C124.32 44.4772 124.086 44.711 124.086 44.9994Z" fill="white"/>
<path d="M48.6086 74.6831C48.4973 74.6831 48.4072 74.5931 48.4072 74.4818V72.8022C48.4072 70.7463 50.0795 69.0738 52.1352 69.0738H54.3975C54.5088 69.0738 54.5988 69.1638 54.5988 69.2752C54.5988 69.3865 54.5088 69.4765 54.3975 69.4765H52.1352C50.3017 69.4765 48.8099 70.9684 48.8099 72.8022V74.4818C48.8099 74.5931 48.7199 74.6831 48.6086 74.6831Z" fill="url(#paint39_linear_7_2484)"/>
<path d="M75.7603 75.2656C75.649 75.2656 75.559 75.1756 75.559 75.0642V72.802C75.559 70.9683 74.0672 69.4765 72.2333 69.4765H70.5535C70.4422 69.4765 70.3522 69.3865 70.3522 69.2752C70.3522 69.1638 70.4422 69.0738 70.5535 69.0738H72.2333C74.289 69.0738 75.9617 70.7463 75.9617 72.802V75.0642C75.9617 75.1755 75.8716 75.2656 75.7603 75.2656Z" fill="url(#paint40_linear_7_2484)"/>
<path d="M72.2334 89.5659H69.9711C69.8598 89.5659 69.7698 89.4758 69.7698 89.3645C69.7698 89.2532 69.8598 89.1632 69.9711 89.1632H72.2334C74.0673 89.1632 75.5591 87.6712 75.5591 85.8375V84.1579C75.5591 84.0466 75.6491 83.9565 75.7604 83.9565C75.8717 83.9565 75.9618 84.0466 75.9618 84.1579V85.8375C75.9618 87.8934 74.2891 89.5659 72.2334 89.5659Z" fill="url(#paint41_linear_7_2484)"/>
<path d="M53.815 89.5659H52.1356C50.0799 89.5659 48.4072 87.8934 48.4072 85.8377V83.5754C48.4072 83.4641 48.4973 83.3741 48.6086 83.3741C48.7199 83.3741 48.8099 83.4641 48.8099 83.5754V85.8377C48.8099 87.6714 50.3017 89.1632 52.1356 89.1632H53.815C53.9263 89.1632 54.0164 89.2532 54.0164 89.3645C54.0164 89.4758 53.9263 89.5659 53.815 89.5659Z" fill="url(#paint42_linear_7_2484)"/>
<path d="M73.8473 72.8022V85.8375C73.8473 86.7288 73.1247 87.4514 72.2334 87.4514H52.1356C51.2443 87.4514 50.5217 86.7288 50.5217 85.8375V72.8022C50.5217 71.9109 51.2443 71.1884 52.1356 71.1884H72.2334C73.1247 71.1884 73.8473 71.9109 73.8473 72.8022Z" fill="url(#paint43_linear_7_2484)"/>
<path d="M55.0795 82.322C54.5675 82.0534 54.1584 81.6676 53.8524 81.164C53.5457 80.6606 53.3927 80.0689 53.3927 79.3892C53.3927 78.7096 53.5457 78.1181 53.8524 77.6147C54.1584 77.1111 54.5675 76.7252 55.0795 76.4564C55.5912 76.1882 56.1492 76.0537 56.7534 76.0537C57.1982 76.0537 57.582 76.1103 57.9053 76.2236C58.2282 76.3369 58.5283 76.4816 58.8052 76.658C58.9727 76.7672 59.0569 76.9141 59.0569 77.0985C59.0569 77.2244 59.0085 77.3398 58.9122 77.4446C58.8154 77.5498 58.7045 77.6021 58.5787 77.6021C58.4862 77.6021 58.3938 77.577 58.3018 77.5266C58.0249 77.3839 57.7878 77.281 57.5907 77.2181C57.3933 77.1552 57.1479 77.1237 56.8541 77.1237C56.1324 77.1237 55.566 77.3313 55.1551 77.7469C54.7437 78.1622 54.5384 78.7096 54.5384 79.3893C54.5384 80.0689 54.7437 80.6165 55.1551 81.0319C55.5661 81.4474 56.1324 81.6551 56.8541 81.6551C57.1479 81.6551 57.3933 81.6236 57.5907 81.5607C57.7878 81.4978 58.0249 81.3951 58.3018 81.2523C58.3938 81.2018 58.4863 81.1767 58.5787 81.1767C58.7045 81.1767 58.8154 81.2292 58.9122 81.3342C59.0085 81.4392 59.0569 81.5544 59.0569 81.6803C59.0569 81.8647 58.9727 82.0118 58.8052 82.1208C58.5283 82.297 58.2282 82.4417 57.9053 82.555C57.582 82.6683 57.1982 82.7249 56.7534 82.7249C56.1492 82.7248 55.5911 82.5907 55.0795 82.322Z" fill="white"/>
<path d="M60.2777 82.1585C60.1349 82.0578 60.0637 81.9193 60.0637 81.7432C60.0637 81.6091 60.1097 81.4915 60.2021 81.3907C60.2942 81.29 60.4118 81.2397 60.5545 81.2397C60.63 81.2397 60.7055 81.2566 60.781 81.2901C61.0496 81.4077 61.3179 81.4997 61.5865 81.567C61.8551 81.6342 62.1572 81.6677 62.493 81.6677C63.4243 81.6677 63.89 81.3699 63.89 80.7739C63.89 80.581 63.783 80.4341 63.5691 80.3334C63.3552 80.2325 63.0047 80.1193 62.5182 79.9934C62.0227 79.8762 61.6137 79.7543 61.2908 79.6284C60.9679 79.5026 60.691 79.3118 60.4601 79.0558C60.2293 78.7999 60.1141 78.4623 60.1141 78.0426C60.1141 77.4553 60.3257 76.977 60.7496 76.6077C61.1732 76.2386 61.7797 76.0538 62.5686 76.0538C63.2144 76.0538 63.8228 76.1588 64.3935 76.3684C64.5111 76.4023 64.6012 76.4652 64.6641 76.5572C64.727 76.6498 64.7585 76.7462 64.7585 76.8469C64.7585 76.9812 64.7101 77.0986 64.6137 77.1993C64.5174 77.3 64.3978 77.3503 64.255 77.3503C64.2129 77.3503 64.1587 77.342 64.0914 77.3251C63.6045 77.1741 63.1263 77.0986 62.6567 77.0986C62.2033 77.0986 61.8489 77.1804 61.5929 77.344C61.3368 77.5076 61.209 77.7198 61.209 77.9798C61.209 78.2315 61.3266 78.4159 61.5614 78.5335C61.7961 78.6511 62.1611 78.7644 62.6567 78.8733C63.1514 78.9992 63.5542 79.1231 63.8649 79.2446C64.1752 79.3665 64.4418 79.5573 64.664 79.8173C64.8862 80.0776 64.9975 80.4259 64.9975 80.862C64.9975 81.3991 64.7856 81.8439 64.362 82.1963C63.938 82.5487 63.3402 82.7249 62.5686 82.7249C61.7293 82.7248 60.9655 82.536 60.2777 82.1585Z" fill="white"/>
<path d="M66.319 82.1585C66.1763 82.0578 66.1051 81.9193 66.1051 81.7432C66.1051 81.6091 66.1511 81.4915 66.2435 81.3907C66.336 81.29 66.4532 81.2397 66.5963 81.2397C66.6718 81.2397 66.7473 81.2566 66.8228 81.2901C67.0911 81.4077 67.3597 81.4997 67.6283 81.567C67.8966 81.6342 68.1986 81.6677 68.5345 81.6677C69.4658 81.6677 69.9315 81.3699 69.9315 80.7739C69.9315 80.581 69.8245 80.4341 69.6105 80.3334C69.3966 80.2325 69.0462 80.1193 68.5597 79.9934C68.0645 79.8762 67.6555 79.7543 67.3326 79.6284C67.0093 79.5026 66.7325 79.3118 66.502 79.0558C66.2707 78.7999 66.1555 78.4623 66.1555 78.0426C66.1555 77.4553 66.3674 76.977 66.7914 76.6077C67.215 76.2386 67.8211 76.0538 68.61 76.0538C69.2562 76.0538 69.8642 76.1588 70.4353 76.3684C70.5525 76.4023 70.6429 76.4652 70.7059 76.5572C70.7688 76.6498 70.8003 76.7462 70.8003 76.8469C70.8003 76.9812 70.7519 77.0986 70.6556 77.1993C70.5588 77.3 70.4393 77.3503 70.2968 77.3503C70.2548 77.3503 70.2001 77.342 70.1328 77.3251C69.6464 77.1741 69.1681 77.0986 68.6981 77.0986C68.245 77.0986 67.8903 77.1804 67.6346 77.344C67.3786 77.5076 67.2508 77.7198 67.2508 77.9798C67.2508 78.2315 67.368 78.4159 67.6031 78.5335C67.8379 78.6511 68.2029 78.7644 68.6981 78.8733C69.1932 78.9992 69.596 79.1231 69.9063 79.2446C70.217 79.3665 70.4832 79.5573 70.7059 79.8173C70.9281 80.0776 71.0394 80.4259 71.0394 80.862C71.0394 81.3991 70.8274 81.8439 70.4038 82.1963C69.9798 82.5487 69.382 82.7249 68.61 82.7249C67.7707 82.7248 67.0073 82.536 66.319 82.1585Z" fill="white"/>
<path d="M21.4569 99.2347C21.3455 99.2347 21.2555 99.1446 21.2555 99.0333V97.3538C21.2555 95.298 22.9282 93.6255 24.9839 93.6255H27.2461C27.3574 93.6255 27.4475 93.7156 27.4475 93.8269C27.4475 93.9382 27.3574 94.0283 27.2461 94.0283H24.9839C23.15 94.0283 21.6582 95.52 21.6582 97.3538V99.0333C21.6582 99.1446 21.5682 99.2347 21.4569 99.2347Z" fill="url(#paint44_linear_7_2484)"/>
<path d="M48.6086 99.8167C48.4973 99.8167 48.4072 99.7266 48.4072 99.6153V97.3531C48.4072 95.5195 46.9155 94.0278 45.0815 94.0278H43.4022C43.2909 94.0278 43.2008 93.9377 43.2008 93.8264C43.2008 93.7151 43.2909 93.6251 43.4022 93.6251H45.0815C47.1373 93.6251 48.8099 95.2975 48.8099 97.3531V99.6153C48.8099 99.7266 48.7199 99.8167 48.6086 99.8167Z" fill="url(#paint45_linear_7_2484)"/>
<path d="M45.082 114.117H42.8198C42.7085 114.117 42.6184 114.027 42.6184 113.916C42.6184 113.804 42.7085 113.714 42.8198 113.714H45.082C46.9155 113.714 48.4073 112.222 48.4073 110.389V108.709C48.4073 108.598 48.4974 108.508 48.6087 108.508C48.72 108.508 48.81 108.598 48.81 108.709V110.389C48.81 112.445 47.1377 114.117 45.082 114.117Z" fill="url(#paint46_linear_7_2484)"/>
<path d="M26.6637 114.117H24.9839C22.9282 114.117 21.2555 112.445 21.2555 110.389V108.127C21.2555 108.015 21.3455 107.925 21.4569 107.925C21.5682 107.925 21.6582 108.015 21.6582 108.127V110.389C21.6582 112.223 23.15 113.714 24.9839 113.714H26.6637C26.775 113.714 26.865 113.804 26.865 113.916C26.8651 114.027 26.775 114.117 26.6637 114.117Z" fill="url(#paint47_linear_7_2484)"/>
<path d="M46.6957 97.3533V110.389C46.6957 111.28 45.9731 112.003 45.0818 112.003H24.984C24.0927 112.003 23.3701 111.28 23.3701 110.389V97.3533C23.3701 96.462 24.0927 95.7394 24.984 95.7394H45.0818C45.9731 95.7394 46.6957 96.462 46.6957 97.3533Z" fill="url(#paint48_linear_7_2484)"/>
<path d="M27.8298 106.571C27.3877 106.339 27.035 106.006 26.7707 105.572C26.506 105.137 26.3743 104.627 26.3743 104.04C26.3743 103.453 26.506 102.943 26.7707 102.508C27.035 102.074 27.3878 101.741 27.8298 101.509C28.2715 101.277 28.7532 101.161 29.2744 101.161C29.6582 101.161 29.9898 101.21 30.2686 101.308C30.547 101.406 30.8063 101.531 31.0453 101.683C31.1901 101.777 31.2624 101.904 31.2624 102.063C31.2624 102.172 31.2208 102.271 31.1374 102.362C31.0544 102.452 30.9585 102.497 30.8495 102.497C30.7701 102.497 30.6902 102.476 30.6107 102.432C30.3716 102.309 30.1671 102.22 29.9968 102.166C29.8265 102.112 29.6149 102.085 29.3613 102.085C28.7383 102.085 28.2498 102.264 27.8951 102.622C27.5399 102.981 27.3625 103.453 27.3625 104.04C27.3625 104.627 27.5399 105.099 27.8951 105.458C28.2498 105.816 28.7383 105.995 29.3613 105.995C29.6149 105.995 29.8265 105.968 29.9968 105.914C30.1671 105.86 30.3717 105.771 30.6107 105.648C30.6902 105.604 30.77 105.583 30.8495 105.583C30.9585 105.583 31.0544 105.628 31.1374 105.718C31.2208 105.809 31.2624 105.909 31.2624 106.017C31.2624 106.177 31.1901 106.303 31.0453 106.397C30.8062 106.549 30.547 106.674 30.2686 106.772C29.9898 106.87 29.6582 106.919 29.2744 106.919C28.7532 106.919 28.2715 106.803 27.8298 106.571Z" fill="white"/>
<path d="M34.3966 105.555C34.3132 105.472 34.2715 105.373 34.2715 105.257V103.475H32.4899C32.3739 103.475 32.2763 103.435 32.1965 103.356C32.117 103.276 32.0773 103.178 32.0773 103.062C32.0773 102.939 32.117 102.838 32.1965 102.758C32.2763 102.678 32.3738 102.639 32.4899 102.639H34.2715V100.857C34.2715 100.734 34.3132 100.633 34.3966 100.553C34.4796 100.473 34.5795 100.433 34.6951 100.433C34.8182 100.433 34.9197 100.473 34.9995 100.553C35.079 100.633 35.1191 100.734 35.1191 100.857V102.639H36.8897C37.0128 102.639 37.1139 102.678 37.1937 102.758C37.2736 102.838 37.3133 102.939 37.3133 103.062C37.3133 103.178 37.2736 103.276 37.1937 103.356C37.1139 103.435 37.0128 103.475 36.8897 103.475H35.1191V105.257C35.1191 105.373 35.079 105.472 34.9995 105.555C34.9197 105.639 34.8182 105.68 34.6951 105.68C34.5795 105.68 34.4796 105.639 34.3966 105.555Z" fill="white"/>
<path d="M40.5016 105.555C40.4183 105.472 40.3765 105.373 40.3765 105.257V103.475H38.5949C38.4789 103.475 38.3814 103.435 38.3016 103.356C38.2221 103.276 38.1824 103.178 38.1824 103.062C38.1824 102.939 38.2221 102.838 38.3016 102.758C38.3814 102.678 38.4789 102.639 38.5949 102.639H40.3765V100.857C40.3765 100.734 40.4183 100.633 40.5016 100.553C40.5846 100.473 40.6845 100.433 40.8001 100.433C40.9233 100.433 41.0247 100.473 41.1046 100.553C41.184 100.633 41.2241 100.734 41.2241 100.857V102.639H42.9948C43.1179 102.639 43.2189 102.678 43.2988 102.758C43.3786 102.838 43.4184 102.939 43.4184 103.062C43.4184 103.178 43.3786 103.276 43.2988 103.356C43.219 103.435 43.1179 103.475 42.9948 103.475H41.2241V105.257C41.2241 105.373 41.184 105.472 41.1046 105.555C41.0247 105.639 40.9233 105.68 40.8001 105.68C40.6845 105.68 40.5846 105.639 40.5016 105.555Z" fill="white"/>
<path d="M101.225 84.8691C101.113 84.8691 101.023 84.7791 101.023 84.6678V82.9882C101.023 80.9325 102.695 79.26 104.751 79.26H107.013C107.125 79.26 107.215 79.3501 107.215 79.4614C107.215 79.5727 107.125 79.6627 107.013 79.6627H104.751C102.918 79.6627 101.426 81.1545 101.426 82.9882V84.6678C101.426 84.7791 101.336 84.8691 101.225 84.8691Z" fill="url(#paint49_linear_7_2484)"/>
<path d="M128.376 85.4516C128.265 85.4516 128.175 85.3616 128.175 85.2503V82.988C128.175 81.1545 126.683 79.6627 124.849 79.6627H123.17C123.058 79.6627 122.968 79.5727 122.968 79.4614C122.968 79.3501 123.058 79.26 123.17 79.26H124.849C126.905 79.26 128.578 80.9325 128.578 82.988V85.2503C128.578 85.3616 128.488 85.4516 128.376 85.4516Z" fill="url(#paint50_linear_7_2484)"/>
<path d="M124.849 99.752H122.587C122.476 99.752 122.386 99.662 122.386 99.5506C122.386 99.4393 122.476 99.3493 122.587 99.3493H124.849C126.683 99.3493 128.175 97.8573 128.175 96.0236V94.344C128.175 94.2327 128.265 94.1426 128.376 94.1426C128.488 94.1426 128.578 94.2327 128.578 94.344V96.0236C128.578 98.0795 126.905 99.752 124.849 99.752Z" fill="url(#paint51_linear_7_2484)"/>
<path d="M106.431 99.752H104.752C102.696 99.752 101.023 98.0795 101.023 96.0238V93.7615C101.023 93.6502 101.113 93.5602 101.225 93.5602C101.336 93.5602 101.426 93.6502 101.426 93.7615V96.0238C101.426 97.8575 102.918 99.3493 104.752 99.3493H106.431C106.542 99.3493 106.632 99.4393 106.632 99.5506C106.632 99.6619 106.542 99.752 106.431 99.752Z" fill="url(#paint52_linear_7_2484)"/>
<path d="M126.463 82.9882V96.0236C126.463 96.9149 125.741 97.6374 124.849 97.6374H104.752C103.86 97.6374 103.138 96.9149 103.138 96.0236V82.9882C103.138 82.0969 103.86 81.3744 104.752 81.3744H124.849C125.741 81.3744 126.463 82.0969 126.463 82.9882Z" fill="url(#paint53_linear_7_2484)"/>
<path d="M105.905 91.5774C105.847 91.5202 105.819 91.4496 105.819 91.3655V87.2787C105.819 87.1948 105.847 87.123 105.905 87.0634C105.962 87.0038 106.033 86.9739 106.117 86.9739C106.2 86.9739 106.272 87.0038 106.332 87.0634C106.392 87.123 106.422 87.1948 106.422 87.2787V89.0407H108.932V87.2787C108.932 87.1948 108.961 87.123 109.018 87.0634C109.075 87.0038 109.146 86.9739 109.23 86.9739C109.314 86.9739 109.385 87.0038 109.445 87.0634C109.505 87.123 109.534 87.1948 109.534 87.2787V91.3655C109.534 91.4496 109.505 91.5202 109.445 91.5774C109.385 91.6348 109.314 91.6635 109.23 91.6635C109.146 91.6635 109.075 91.6348 109.018 91.5774C108.961 91.5202 108.932 91.4496 108.932 91.3655V89.6035H106.422V91.3655C106.422 91.4496 106.392 91.5202 106.332 91.5774C106.272 91.6348 106.2 91.6635 106.117 91.6635C106.033 91.6636 105.962 91.6349 105.905 91.5774Z" fill="white"/>
<path d="M111.979 91.577C111.921 91.5198 111.893 91.4492 111.893 91.365V87.5698H110.541C110.462 87.5698 110.396 87.5432 110.343 87.4903C110.29 87.4372 110.263 87.3709 110.263 87.2915C110.263 87.2119 110.29 87.1446 110.343 87.0895C110.396 87.0343 110.462 87.0065 110.541 87.0065H113.84C113.92 87.0065 113.987 87.0343 114.042 87.0895C114.097 87.1446 114.125 87.2118 114.125 87.2915C114.125 87.3709 114.097 87.4372 114.042 87.4903C113.987 87.5432 113.92 87.5698 113.84 87.5698H112.495V91.365C112.495 91.4492 112.466 91.5198 112.406 91.577C112.346 91.6344 112.274 91.6631 112.191 91.6631C112.107 91.6632 112.036 91.6345 111.979 91.577Z" fill="white"/>
<path d="M114.939 91.577C114.882 91.5198 114.853 91.4492 114.853 91.365V87.4106C114.853 87.2915 114.895 87.1888 114.979 87.1027C115.063 87.0166 115.165 86.9734 115.284 86.9734H115.502C115.591 86.9734 115.671 87 115.744 87.0529C115.817 87.106 115.871 87.1721 115.906 87.2517L117.41 91.0007L118.914 87.2517C118.949 87.1721 119.003 87.106 119.076 87.0529C119.149 87 119.229 86.9734 119.318 86.9734H119.536C119.655 86.9734 119.757 87.0165 119.841 87.1027C119.925 87.1888 119.967 87.2915 119.967 87.4106V91.365C119.967 91.4492 119.938 91.5198 119.881 91.577C119.823 91.6344 119.752 91.6631 119.669 91.6631C119.585 91.6631 119.513 91.6344 119.454 91.577C119.394 91.5198 119.364 91.4492 119.364 91.365V87.6028L117.834 91.3851C117.799 91.4688 117.742 91.5363 117.665 91.587C117.588 91.6378 117.503 91.6631 117.41 91.6631C117.317 91.6631 117.232 91.6378 117.155 91.587C117.078 91.5363 117.021 91.4688 116.986 91.3851L115.456 87.6028V91.365C115.456 91.4492 115.426 91.5198 115.367 91.577C115.307 91.6344 115.235 91.6631 115.151 91.6631C115.067 91.6631 114.997 91.6344 114.939 91.577Z" fill="white"/>
<path d="M121.375 91.5076C121.293 91.426 121.252 91.3276 121.252 91.2128V87.2783C121.252 87.1944 121.281 87.1226 121.338 87.063C121.395 87.0034 121.466 86.9735 121.55 86.9735C121.634 86.9735 121.706 87.0034 121.765 87.063C121.825 87.1226 121.855 87.1944 121.855 87.2783V91.0272H124.021C124.104 91.0272 124.176 91.0571 124.236 91.1168C124.296 91.1762 124.325 91.2482 124.325 91.332C124.325 91.4159 124.296 91.4865 124.236 91.5439C124.176 91.6013 124.104 91.63 124.021 91.63H121.669C121.554 91.6301 121.456 91.5892 121.375 91.5076Z" fill="white"/>
<path d="M197.064 144.308C197.064 150.625 191.944 155.741 185.632 155.741C179.319 155.741 174.199 150.625 174.199 144.308C174.199 137.996 179.319 132.879 185.632 132.879C191.944 132.879 197.064 137.996 197.064 144.308Z" fill="#ADC8F7"/>
<path d="M194.168 144.309C194.168 149.025 190.345 152.845 185.632 152.845C180.918 152.845 177.095 149.025 177.095 144.309C177.095 139.596 180.918 135.776 185.632 135.776C190.345 135.776 194.168 139.596 194.168 144.309Z" fill="url(#paint54_linear_7_2484)"/>
<path d="M182.974 145.911L179.775 144.476C179.684 144.433 179.613 144.375 179.563 144.303C179.512 144.231 179.487 144.15 179.487 144.059V143.995C179.487 143.904 179.512 143.822 179.563 143.75C179.613 143.678 179.684 143.621 179.775 143.578L182.974 142.143C183.017 142.127 183.059 142.119 183.102 142.119C183.193 142.119 183.269 142.149 183.331 142.211C183.392 142.272 183.423 142.348 183.423 142.439C183.423 142.503 183.403 142.564 183.363 142.62C183.323 142.676 183.271 142.717 183.206 142.744L180.32 144.027L183.206 145.31C183.271 145.336 183.323 145.378 183.363 145.434C183.403 145.49 183.423 145.55 183.423 145.614C183.423 145.705 183.392 145.781 183.331 145.842C183.269 145.904 183.193 145.935 183.102 145.935C183.059 145.935 183.017 145.927 182.974 145.911Z" fill="white"/>
<path d="M184.333 147.065C184.272 147.001 184.241 146.924 184.241 146.833C184.241 146.8 184.249 146.76 184.265 146.712L186.389 140.499C186.411 140.435 186.448 140.382 186.501 140.339C186.555 140.296 186.622 140.275 186.702 140.275C186.798 140.275 186.877 140.307 186.938 140.371C187 140.435 187.031 140.513 187.031 140.603C187.031 140.635 187.023 140.675 187.007 140.723L184.882 146.937C184.861 147.001 184.823 147.054 184.77 147.097C184.716 147.14 184.649 147.161 184.57 147.161C184.473 147.161 184.394 147.129 184.333 147.065Z" fill="white"/>
<path d="M187.933 145.842C187.871 145.781 187.841 145.705 187.841 145.614C187.841 145.55 187.861 145.49 187.9 145.434C187.941 145.378 187.993 145.336 188.057 145.31L190.943 144.027L188.057 142.744C187.993 142.717 187.941 142.676 187.9 142.62C187.861 142.564 187.841 142.503 187.841 142.439C187.841 142.348 187.871 142.272 187.933 142.211C187.994 142.149 188.07 142.119 188.161 142.119C188.209 142.119 188.252 142.127 188.289 142.143L191.488 143.578C191.579 143.621 191.65 143.678 191.701 143.75C191.752 143.822 191.777 143.904 191.777 143.995V144.059C191.777 144.15 191.752 144.231 191.701 144.303C191.65 144.375 191.579 144.433 191.488 144.476L188.289 145.911C188.252 145.927 188.209 145.935 188.161 145.935C188.07 145.935 187.994 145.904 187.933 145.842Z" fill="white"/>
<defs>
<linearGradient id="paint0_linear_7_2484" x1="169.473" y1="111.088" x2="170.96" y2="34.3367" gradientUnits="userSpaceOnUse">
<stop stop-color="#E7ECFF"/>
<stop offset="1" stop-color="#C2D5FF"/>
</linearGradient>
<linearGradient id="paint1_linear_7_2484" x1="169.96" y1="58.8618" x2="170.147" y2="40.4528" gradientUnits="userSpaceOnUse">
<stop offset="1.1e-07" stop-color="#B3B3FF"/>
<stop offset="1" stop-color="#8F8FEA"/>
</linearGradient>
<linearGradient id="paint2_linear_7_2484" x1="159.492" y1="52.6234" x2="213.925" y2="52.6234" gradientUnits="userSpaceOnUse">
<stop stop-color="#E7ECFF"/>
<stop offset="1" stop-color="#C2D5FF"/>
</linearGradient>
<linearGradient id="paint3_linear_7_2484" x1="84.4488" y1="100.536" x2="66.9441" y2="104.197" gradientUnits="userSpaceOnUse">
<stop stop-color="#771E24"/>
<stop offset="1" stop-color="#47090E"/>
</linearGradient>
<linearGradient id="paint4_linear_7_2484" x1="29.304" y1="151.587" x2="162.073" y2="151.587" gradientUnits="userSpaceOnUse">
<stop stop-color="#E7ECFF"/>
<stop offset="1" stop-color="#C2D5FF"/>
</linearGradient>
<linearGradient id="paint5_linear_7_2484" x1="160.013" y1="201.972" x2="145.79" y2="166.566" gradientUnits="userSpaceOnUse">
<stop stop-color="#E7ECFF"/>
<stop offset="1" stop-color="#C2D5FF"/>
</linearGradient>
<linearGradient id="paint6_linear_7_2484" x1="138.917" y1="203.146" x2="127.37" y2="164.376" gradientUnits="userSpaceOnUse">
<stop stop-color="#E7ECFF"/>
<stop offset="1" stop-color="#C2D5FF"/>
</linearGradient>
<linearGradient id="paint7_linear_7_2484" x1="26.583" y1="212.618" x2="46.9141" y2="149.246" gradientUnits="userSpaceOnUse">
<stop stop-color="#E7ECFF"/>
<stop offset="1" stop-color="#C2D5FF"/>
</linearGradient>
<linearGradient id="paint8_linear_7_2484" x1="62.9316" y1="154.901" x2="49.9064" y2="200.772" gradientUnits="userSpaceOnUse">
<stop stop-color="#E7ECFF"/>
<stop offset="1" stop-color="#C2D5FF"/>
</linearGradient>
<linearGradient id="paint9_linear_7_2484" x1="95.6574" y1="132.716" x2="134.387" y2="142.439" gradientUnits="userSpaceOnUse">
<stop offset="3.2e-07" stop-color="#78A7FF"/>
<stop offset="1" stop-color="#3D79F3"/>
</linearGradient>
<linearGradient id="paint10_linear_7_2484" x1="119.513" y1="119.689" x2="119.513" y2="150.452" gradientUnits="userSpaceOnUse">
<stop stop-color="#E7ECFF"/>
<stop offset="1" stop-color="#C2D5FF"/>
</linearGradient>
<linearGradient id="paint11_linear_7_2484" x1="104.789" y1="148.045" x2="104.678" y2="151.047" gradientUnits="userSpaceOnUse">
<stop offset="3.2e-07" stop-color="#78A7FF"/>
<stop offset="1" stop-color="#3D79F3"/>
</linearGradient>
<linearGradient id="paint12_linear_7_2484" x1="127.649" y1="149.399" x2="113.669" y2="148.497" gradientUnits="userSpaceOnUse">
<stop offset="3.2e-07" stop-color="#78A7FF"/>
<stop offset="1" stop-color="#3D79F3"/>
</linearGradient>
<linearGradient id="paint13_linear_7_2484" x1="76.538" y1="207.227" x2="92.3741" y2="207.227" gradientUnits="userSpaceOnUse">
<stop offset="3.2e-07" stop-color="#FF8888"/>
<stop offset="1" stop-color="#F24E4E"/>
</linearGradient>
<linearGradient id="paint14_linear_7_2484" x1="72.2724" y1="179.662" x2="88.5548" y2="179.662" gradientUnits="userSpaceOnUse">
<stop offset="2.2e-07" stop-color="#5C5CA0"/>
<stop offset="1" stop-color="#434389"/>
</linearGradient>
<linearGradient id="paint15_linear_7_2484" x1="66.4556" y1="177.83" x2="111.803" y2="177.83" gradientUnits="userSpaceOnUse">
<stop offset="2.2e-07" stop-color="#5C5CA0"/>
<stop offset="1" stop-color="#434389"/>
</linearGradient>
<linearGradient id="paint16_linear_7_2484" x1="99.8393" y1="208.175" x2="115.675" y2="208.175" gradientUnits="userSpaceOnUse">
<stop offset="3.2e-07" stop-color="#FF8888"/>
<stop offset="1" stop-color="#F24E4E"/>
</linearGradient>
<linearGradient id="paint17_linear_7_2484" x1="58.7581" y1="137.319" x2="87.0456" y2="137.319" gradientUnits="userSpaceOnUse">
<stop offset="2.2e-07" stop-color="#FFBB83"/>
<stop offset="1" stop-color="#FF9D45"/>
</linearGradient>
<linearGradient id="paint18_linear_7_2484" x1="69.8384" y1="114.278" x2="78.7267" y2="114.538" gradientUnits="userSpaceOnUse">
<stop offset="2.2e-07" stop-color="#FFBB83"/>
<stop offset="1" stop-color="#FF9D45"/>
</linearGradient>
<linearGradient id="paint19_linear_7_2484" x1="79.7496" y1="131.653" x2="113.307" y2="131.653" gradientUnits="userSpaceOnUse">
<stop offset="2.2e-07" stop-color="#FFBB83"/>
<stop offset="1" stop-color="#FF9D45"/>
</linearGradient>
<linearGradient id="paint20_linear_7_2484" x1="81.4384" y1="151.703" x2="48.6919" y2="152.809" gradientUnits="userSpaceOnUse">
<stop stop-color="#E7ECFF"/>
<stop offset="1" stop-color="#C2D5FF"/>
</linearGradient>
<linearGradient id="paint21_linear_7_2484" x1="81.6421" y1="145.845" x2="61.9123" y2="148.576" gradientUnits="userSpaceOnUse">
<stop stop-color="#E7ECFF"/>
<stop offset="1" stop-color="#C2D5FF"/>
</linearGradient>
<linearGradient id="paint22_linear_7_2484" x1="75.194" y1="192.416" x2="78.7042" y2="192.416" gradientUnits="userSpaceOnUse">
<stop stop-color="#E7ECFF"/>
<stop offset="1" stop-color="#C2D5FF"/>
</linearGradient>
<linearGradient id="paint23_linear_7_2484" x1="76.9827" y1="204.599" x2="76.9441" y2="206.99" gradientUnits="userSpaceOnUse">
<stop stop-color="#E7ECFF"/>
<stop offset="1" stop-color="#C2D5FF"/>
</linearGradient>
<linearGradient id="paint24_linear_7_2484" x1="76.8307" y1="207.354" x2="76.9465" y2="210.672" gradientUnits="userSpaceOnUse">
<stop stop-color="#E7ECFF"/>
<stop offset="1" stop-color="#C2D5FF"/>
</linearGradient>
<linearGradient id="paint25_linear_7_2484" x1="79.6708" y1="103.339" x2="81.3183" y2="103.339" gradientUnits="userSpaceOnUse">
<stop stop-color="#771E24"/>
<stop offset="1" stop-color="#47090E"/>
</linearGradient>
<linearGradient id="paint26_linear_7_2484" x1="144.381" y1="147.43" x2="153.04" y2="147.43" gradientUnits="userSpaceOnUse">
<stop offset="3.2e-07" stop-color="#A7C161"/>
<stop offset="1" stop-color="#8BA53A"/>
</linearGradient>
<linearGradient id="paint27_linear_7_2484" x1="145.041" y1="147.43" x2="153.04" y2="147.43" gradientUnits="userSpaceOnUse">
<stop stop-color="#E7ECFF"/>
<stop offset="1" stop-color="#C2D5FF"/>
</linearGradient>
<linearGradient id="paint28_linear_7_2484" x1="137.425" y1="147.43" x2="145.92" y2="147.43" gradientUnits="userSpaceOnUse">
<stop offset="3.2e-07" stop-color="#A7C161"/>
<stop offset="1" stop-color="#8BA53A"/>
</linearGradient>
<linearGradient id="paint29_linear_7_2484" x1="137.425" y1="150.506" x2="146.083" y2="150.506" gradientUnits="userSpaceOnUse">
<stop offset="3.2e-07" stop-color="#FF8888"/>
<stop offset="1" stop-color="#F24E4E"/>
</linearGradient>
<linearGradient id="paint30_linear_7_2484" x1="137.425" y1="150.506" x2="145.424" y2="150.506" gradientUnits="userSpaceOnUse">
<stop stop-color="#E7ECFF"/>
<stop offset="1" stop-color="#C2D5FF"/>
</linearGradient>
<linearGradient id="paint31_linear_7_2484" x1="144.545" y1="150.506" x2="153.04" y2="150.506" gradientUnits="userSpaceOnUse">
<stop offset="3.2e-07" stop-color="#FF8888"/>
<stop offset="1" stop-color="#F24E4E"/>
</linearGradient>
<linearGradient id="paint32_linear_7_2484" x1="155.731" y1="182.533" x2="166.081" y2="182.533" gradientUnits="userSpaceOnUse">
<stop stop-color="#E7ECFF"/>
<stop offset="1" stop-color="#C2D5FF"/>
</linearGradient>
<linearGradient id="paint33_linear_7_2484" x1="143.127" y1="183.822" x2="153.476" y2="183.822" gradientUnits="userSpaceOnUse">
<stop stop-color="#E7ECFF"/>
<stop offset="1" stop-color="#C2D5FF"/>
</linearGradient>
<linearGradient id="paint34_linear_7_2484" x1="148.579" y1="175.729" x2="158.342" y2="175.729" gradientUnits="userSpaceOnUse">
<stop stop-color="#E7ECFF"/>
<stop offset="1" stop-color="#C2D5FF"/>
</linearGradient>
<linearGradient id="paint35_linear_7_2484" x1="148.301" y1="195.555" x2="160.464" y2="195.555" gradientUnits="userSpaceOnUse">
<stop stop-color="#E7ECFF"/>
<stop offset="1" stop-color="#C2D5FF"/>
</linearGradient>
<linearGradient id="paint36_linear_7_2484" x1="107.788" y1="40.2463" x2="108.701" y2="65.549" gradientUnits="userSpaceOnUse">
<stop stop-color="#E7ECFF"/>
<stop offset="1" stop-color="#C2D5FF"/>
</linearGradient>
<linearGradient id="paint37_linear_7_2484" x1="107.939" y1="36.9798" x2="108.232" y2="26.0463" gradientUnits="userSpaceOnUse">
<stop offset="1.1e-07" stop-color="#B3B3FF"/>
<stop offset="1" stop-color="#8F8FEA"/>
</linearGradient>
<linearGradient id="paint38_linear_7_2484" x1="102.901" y1="32.1114" x2="129.535" y2="32.1114" gradientUnits="userSpaceOnUse">
<stop stop-color="#E7ECFF"/>
<stop offset="1" stop-color="#C2D5FF"/>
</linearGradient>
<linearGradient id="paint39_linear_7_2484" x1="48.4072" y1="71.8784" x2="54.5988" y2="71.8784" gradientUnits="userSpaceOnUse">
<stop stop-color="#E7ECFF"/>
<stop offset="1" stop-color="#C2D5FF"/>
</linearGradient>
<linearGradient id="paint40_linear_7_2484" x1="73.1569" y1="69.0738" x2="73.1569" y2="75.2656" gradientUnits="userSpaceOnUse">
<stop stop-color="#E7ECFF"/>
<stop offset="1" stop-color="#C2D5FF"/>
</linearGradient>
<linearGradient id="paint41_linear_7_2484" x1="75.9618" y1="86.7612" x2="69.7698" y2="86.7612" gradientUnits="userSpaceOnUse">
<stop stop-color="#E7ECFF"/>
<stop offset="1" stop-color="#C2D5FF"/>
</linearGradient>
<linearGradient id="paint42_linear_7_2484" x1="51.2118" y1="89.5659" x2="51.2118" y2="83.3741" gradientUnits="userSpaceOnUse">
<stop stop-color="#E7ECFF"/>
<stop offset="1" stop-color="#C2D5FF"/>
</linearGradient>
<linearGradient id="paint43_linear_7_2484" x1="50.5217" y1="79.3199" x2="73.8473" y2="79.3199" gradientUnits="userSpaceOnUse">
<stop stop-color="#E7ECFF"/>
<stop offset="1" stop-color="#C2D5FF"/>
</linearGradient>
<linearGradient id="paint44_linear_7_2484" x1="21.2555" y1="96.4301" x2="27.4475" y2="96.4301" gradientUnits="userSpaceOnUse">
<stop stop-color="#E7ECFF"/>
<stop offset="1" stop-color="#C2D5FF"/>
</linearGradient>
<linearGradient id="paint45_linear_7_2484" x1="46.0054" y1="93.6251" x2="46.0054" y2="99.8167" gradientUnits="userSpaceOnUse">
<stop stop-color="#E7ECFF"/>
<stop offset="1" stop-color="#C2D5FF"/>
</linearGradient>
<linearGradient id="paint46_linear_7_2484" x1="48.81" y1="111.312" x2="42.6184" y2="111.312" gradientUnits="userSpaceOnUse">
<stop stop-color="#E7ECFF"/>
<stop offset="1" stop-color="#C2D5FF"/>
</linearGradient>
<linearGradient id="paint47_linear_7_2484" x1="24.0603" y1="114.117" x2="24.0603" y2="107.925" gradientUnits="userSpaceOnUse">
<stop stop-color="#E7ECFF"/>
<stop offset="1" stop-color="#C2D5FF"/>
</linearGradient>
<linearGradient id="paint48_linear_7_2484" x1="23.3701" y1="103.871" x2="46.6957" y2="103.871" gradientUnits="userSpaceOnUse">
<stop stop-color="#E7ECFF"/>
<stop offset="1" stop-color="#C2D5FF"/>
</linearGradient>
<linearGradient id="paint49_linear_7_2484" x1="101.023" y1="82.0646" x2="107.215" y2="82.0646" gradientUnits="userSpaceOnUse">
<stop stop-color="#E7ECFF"/>
<stop offset="1" stop-color="#C2D5FF"/>
</linearGradient>
<linearGradient id="paint50_linear_7_2484" x1="125.773" y1="79.26" x2="125.773" y2="85.4516" gradientUnits="userSpaceOnUse">
<stop stop-color="#E7ECFF"/>
<stop offset="1" stop-color="#C2D5FF"/>
</linearGradient>
<linearGradient id="paint51_linear_7_2484" x1="128.578" y1="96.9473" x2="122.386" y2="96.9473" gradientUnits="userSpaceOnUse">
<stop stop-color="#E7ECFF"/>
<stop offset="1" stop-color="#C2D5FF"/>
</linearGradient>
<linearGradient id="paint52_linear_7_2484" x1="103.828" y1="99.752" x2="103.828" y2="93.5602" gradientUnits="userSpaceOnUse">
<stop stop-color="#E7ECFF"/>
<stop offset="1" stop-color="#C2D5FF"/>
</linearGradient>
<linearGradient id="paint53_linear_7_2484" x1="103.138" y1="89.5059" x2="126.463" y2="89.5059" gradientUnits="userSpaceOnUse">
<stop stop-color="#E7ECFF"/>
<stop offset="1" stop-color="#C2D5FF"/>
</linearGradient>
<linearGradient id="paint54_linear_7_2484" x1="177.095" y1="144.31" x2="194.168" y2="144.31" gradientUnits="userSpaceOnUse">
<stop stop-color="#E7ECFF"/>
<stop offset="1" stop-color="#C2D5FF"/>
</linearGradient>
</defs>
</svg>
