<svg width="56" height="56" viewBox="0 0 56 56" fill="none" xmlns="http://www.w3.org/2000/svg">
<path d="M11.8563 0H14.3719V2.49375H16.6907V0H19.2063V7.54688H16.6907V5.03125H14.3938V7.54688H11.8563V0ZM22.5313 2.51562H20.311V0H27.2782V2.51562H25.0469V7.54688H22.5313V2.51562ZM28.3829 0H31.0188L32.6376 2.65781L34.2563 0H36.8923V7.54688H34.3766V3.80625L32.6157 6.51875L30.8548 3.80625V7.54688H28.3829V0ZM38.1391 0H40.6548V5.05312H44.2204V7.54688H38.1391V0Z" fill="black"/>
<path d="M11.7688 51.5156L8.15942 11.0031H47.8407L44.2313 51.4937L27.9672 56" fill="#FF4C1E"/>
<path d="M28 52.5547V14.3281H44.2203L41.125 48.8906L28 52.5547Z" fill="#FF651E"/>
<path d="M15.5312 19.2828H28L29.854 21.7656L28 24.2485H20.9781L21.4375 29.3344H28L29.854 31.9101L28 34.2891H16.8875L15.5312 19.2828ZM17.1062 36.7828H22.0938L22.4437 40.7531L28 42.2407L30.092 44.7191L28 47.425L17.8063 44.5813L17.1062 36.7828Z" fill="#EBEBEB"/>
<path d="M40.425 19.2828H27.9781V24.2485H39.9656L40.425 19.2828ZM39.5172 29.3344H27.9781V34.3H34.1031L33.5235 40.7531L27.9781 42.2407V47.4031L38.15 44.5813L39.5172 29.3344Z" fill="white"/>
</svg>
