<svg width="95" height="109" viewBox="0 0 95 109" fill="none" xmlns="http://www.w3.org/2000/svg">
<g clip-path="url(#clip0_14_106)">
<path d="M94.7808 54.5097C94.7808 48.2309 86.9178 42.2805 74.8625 38.5905C77.6445 26.3034 76.4081 16.5278 70.96 13.3981C69.7043 12.6639 68.236 12.3162 66.6325 12.3162V16.6244C67.5212 16.6244 68.236 16.7983 68.8349 17.1267C71.4623 18.6336 72.6022 24.3715 71.7135 31.7515C71.501 33.5675 71.1532 35.4801 70.7282 37.4314C66.9416 36.504 62.8072 35.7892 58.4604 35.3256C55.8523 31.7515 53.1476 28.5058 50.4235 25.6659C56.7217 19.8121 62.6334 16.6051 66.6518 16.6051V12.2969C61.339 12.2969 54.384 16.0835 47.3518 22.6521C40.3195 16.1221 33.3645 12.3742 28.0517 12.3742V16.6824C32.0508 16.6824 37.9819 19.8701 44.28 25.6852C41.5753 28.5251 38.8706 31.7515 36.3011 35.3256C31.9349 35.7892 27.8006 36.504 24.014 37.4507C23.5696 35.5187 23.2412 33.6448 23.0094 31.8481C22.1014 24.4681 23.2219 18.7302 25.83 17.204C26.4096 16.8562 27.163 16.7017 28.0517 16.7017V12.3935C26.4289 12.3935 24.9606 12.7412 23.6855 13.4754C18.2568 16.6051 17.0397 26.3614 19.841 38.6098C7.82434 42.3192 0 48.2502 0 54.5097C0 60.7885 7.86298 66.7388 19.9183 70.4288C17.1363 82.716 18.3727 92.4915 23.8208 95.6213C25.0765 96.3554 26.5448 96.7032 28.1676 96.7032C33.4805 96.7032 40.4354 92.9166 47.4677 86.348C54.4999 92.8779 61.4549 96.6259 66.7677 96.6259C68.3905 96.6259 69.8588 96.2781 71.1339 95.544C76.5626 92.4143 77.7798 82.658 74.9784 70.4095C86.9565 66.7195 94.7808 60.7692 94.7808 54.5097ZM69.627 41.6237C68.9122 44.1159 68.0235 46.6853 67.0189 49.2548C66.2268 47.7093 65.396 46.1637 64.488 44.6182C63.5993 43.0726 62.6527 41.5657 61.7061 40.0974C64.4494 40.5031 67.0961 41.0054 69.627 41.6237ZM60.7787 62.1988C59.2718 64.8069 57.7263 67.2798 56.1228 69.5788C53.2442 69.8299 50.3269 69.9652 47.3904 69.9652C44.4732 69.9652 41.556 69.8299 38.6967 69.5981C37.0932 67.2991 35.5283 64.8455 34.0214 62.2567C32.5531 59.7259 31.2201 57.1564 30.003 54.5676C31.2008 51.9788 32.5531 49.39 34.0021 46.8592C35.509 44.2511 37.0545 41.7782 38.658 39.4792C41.5366 39.2281 44.4539 39.0928 47.3904 39.0928C50.3076 39.0928 53.2248 39.2281 56.0841 39.4599C57.6876 41.7589 59.2525 44.2125 60.7594 46.8013C62.2277 49.3321 63.5607 51.9016 64.7778 54.4904C63.5607 57.0792 62.2277 59.6679 60.7787 62.1988ZM67.0189 59.6873C68.0621 62.2761 68.9508 64.8649 69.685 67.3764C67.1541 67.9946 64.488 68.5162 61.7254 68.9219C62.672 67.4343 63.6187 65.9081 64.5074 64.3432C65.396 62.7977 66.2268 61.2328 67.0189 59.6873ZM47.429 80.301C45.6323 78.4464 43.8356 76.3792 42.0583 74.1188C43.797 74.1961 45.5744 74.2541 47.3711 74.2541C49.1871 74.2541 50.9838 74.2154 52.7419 74.1188C51.0031 76.3792 49.2064 78.4464 47.429 80.301ZM33.0554 68.9219C30.3121 68.5162 27.6653 68.0139 25.1345 67.3957C25.8493 64.9035 26.738 62.334 27.7426 59.7646C28.5347 61.3101 29.3654 62.8557 30.2734 64.4012C31.1815 65.9467 32.1088 67.4537 33.0554 68.9219ZM47.3324 28.7183C49.1291 30.573 50.9258 32.6402 52.7032 34.9005C50.9645 34.8233 49.1871 34.7653 47.3904 34.7653C45.5744 34.7653 43.7777 34.8039 42.0196 34.9005C43.7584 32.6402 45.5551 30.573 47.3324 28.7183ZM33.0361 40.0974C32.0895 41.585 31.1428 43.1113 30.2541 44.6761C29.3654 46.2217 28.5347 47.7672 27.7426 49.3128C26.6994 46.724 25.8107 44.1352 25.0765 41.6237C27.6074 41.0248 30.2734 40.5031 33.0361 40.0974ZM15.5521 64.2853C8.71304 61.3681 4.2889 57.5428 4.2889 54.5097C4.2889 51.4765 8.71304 47.632 15.5521 44.7341C17.2136 44.0193 19.0296 43.3817 20.9036 42.7828C22.0048 46.5694 23.4537 50.5106 25.2504 54.5483C23.473 58.5667 22.0434 62.4886 20.9615 66.2559C19.0489 65.657 17.2329 65.0001 15.5521 64.2853ZM25.9459 91.8926C23.3185 90.3857 22.1786 84.6479 23.0673 77.2679C23.2798 75.4519 23.6276 73.5393 24.0526 71.588C27.8392 72.5153 31.9736 73.2301 36.3204 73.6938C38.9285 77.2679 41.6332 80.5135 44.3573 83.3535C38.0591 89.2073 32.1474 92.4143 28.129 92.4143C27.2596 92.395 26.5255 92.2211 25.9459 91.8926ZM71.7714 77.1713C72.6795 84.5513 71.5589 90.2891 68.9508 91.8154C68.3712 92.1631 67.6178 92.3177 66.7291 92.3177C62.73 92.3177 56.7989 89.13 50.5008 83.3149C53.2055 80.4749 55.9102 77.2486 58.4797 73.6745C62.8459 73.2108 66.9802 72.496 70.7668 71.5494C71.2112 73.5006 71.5589 75.3746 71.7714 77.1713ZM79.2094 64.2853C77.5479 65.0001 75.7319 65.6376 73.8579 66.2365C72.7567 62.4499 71.3078 58.5088 69.5111 54.471C71.2885 50.4526 72.7181 46.5308 73.8 42.7635C75.7126 43.3624 77.5286 44.0193 79.2287 44.7341C86.0678 47.6513 90.4919 51.4765 90.4919 54.5097C90.4726 57.5428 86.0484 61.3874 79.2094 64.2853Z" fill="#61DAFB"/>
<path d="M47.3711 63.3387C52.2472 63.3387 56.2 59.3858 56.2 54.5097C56.2 49.6336 52.2472 45.6808 47.3711 45.6808C42.495 45.6808 38.5421 49.6336 38.5421 54.5097C38.5421 59.3858 42.495 63.3387 47.3711 63.3387Z" fill="#61DAFB"/>
</g>
<defs>
<clipPath id="clip0_14_106">
<rect width="94.7808" height="108" fill="white" transform="translate(0 0.5)"/>
</clipPath>
</defs>
</svg>
