<svg width="242" height="240" viewBox="0 0 242 240" fill="none" xmlns="http://www.w3.org/2000/svg">
<g opacity="0.3">
<path d="M238.819 232.337C199.258 242.554 42.7421 242.554 3.18112 232.337C-0.478302 231.391 0.414505 227.152 4.26822 227.152H237.732C241.586 227.152 242.478 231.391 238.819 232.337Z" fill="#000072"/>
</g>
<path d="M227.745 226.587C223.297 225.718 218.849 225.487 214.401 225.393C209.954 225.271 205.506 225.336 201.058 225.402C196.611 225.453 192.163 225.466 187.715 225.458H174.372H121H67.6277H40.9414L34.27 225.456C32.0462 225.457 29.8223 225.38 27.5984 225.344C23.1507 225.324 18.7032 225.375 14.2554 226.587C13.9436 226.672 13.7596 226.994 13.8448 227.306C13.901 227.513 14.0628 227.663 14.2554 227.716C18.7032 228.929 23.1507 228.98 27.5984 228.96C29.8223 228.924 32.0462 228.846 34.27 228.848L40.9414 228.846H67.6277H121H174.372H187.715C192.163 228.838 196.611 228.851 201.058 228.902C205.506 228.968 209.954 229.032 214.401 228.911C218.849 228.817 223.297 228.585 227.745 227.716C228.057 227.655 228.26 227.353 228.199 227.041C228.153 226.805 227.967 226.631 227.745 226.587Z" fill="#000072"/>
<path d="M65.9841 215.091L65.2815 215.008C45.6852 212.678 32.2719 194.089 36.2386 174.757L43.601 138.877C46.9607 122.503 61.3708 110.75 78.0852 110.75H120.924H119.712H162.551C179.266 110.75 193.676 122.503 197.035 138.877L204.398 174.757C208.365 194.089 194.951 212.678 175.355 215.008L174.652 215.091H65.9841Z" fill="#4D5A6A"/>
<path d="M65.9684 215.361H174.652L175.386 215.276C184.802 214.156 193.383 209.104 198.931 201.415C204.479 193.727 206.567 183.991 204.662 174.703L197.3 138.823C193.929 122.401 179.316 110.481 162.551 110.481H78.0853C61.3208 110.481 46.7076 122.4 43.3374 138.823L35.9748 174.703C34.0691 183.991 36.1583 193.727 41.7057 201.416C47.2536 209.105 55.8351 214.156 65.2502 215.276L65.9684 215.361ZM162.551 111.02C179.061 111.02 193.453 122.758 196.772 138.931L204.134 174.811C206.009 183.951 203.954 193.533 198.494 201.1C193.035 208.667 184.589 213.639 175.323 214.741L174.621 214.824L66 214.822L65.3131 214.741C56.0475 213.639 47.6021 208.668 42.1426 201.101C36.6826 193.534 34.627 183.952 36.5028 174.812L43.8653 138.931C47.1836 122.758 61.5753 111.02 78.0853 111.02L162.551 111.02Z" fill="#000072"/>
<g opacity="0.3">
<path d="M65.2811 215.011L65.9818 215.093H174.652L175.353 215.011C187.891 213.522 197.895 205.369 202.444 194.635C197.468 199.109 191.109 202.151 183.914 203.01L183.213 203.091H74.5432L73.8424 203.01C54.2435 200.68 40.8291 182.091 44.8002 162.761L52.1585 126.88C52.6549 124.468 53.3908 122.161 54.3368 119.971C48.9991 124.842 45.1388 131.371 43.603 138.875L36.2388 174.756C32.2736 194.086 45.688 212.681 65.2811 215.011Z" fill="#000072"/>
</g>
<g opacity="0.55">
<path d="M60.7141 115.334C64.7262 113.752 69.0828 112.893 73.6088 112.893H158.072C174.786 112.893 189.199 124.643 192.557 141.019L199.921 176.899C202.946 191.645 195.862 205.953 183.634 212.949C198.549 207.144 207.776 191.219 204.4 174.756L197.036 138.875C193.678 122.506 179.265 110.75 162.551 110.75H78.0879C71.816 110.75 65.8709 112.403 60.7141 115.334Z" fill="white"/>
</g>
<path d="M65.984 216.843H174.652C174.721 216.843 174.79 216.839 174.858 216.831L175.561 216.748C185.388 215.58 194.344 210.307 200.133 202.283C205.923 194.259 208.103 184.098 206.114 174.405L198.752 138.525C195.241 121.416 180.016 108.998 162.551 108.998H78.0852C60.6202 108.998 45.3954 121.416 41.8848 138.525L34.5222 174.405C32.5333 184.098 34.7135 194.259 40.5033 202.284C46.2931 210.308 55.249 215.58 65.0748 216.748L65.7773 216.831C65.8463 216.84 65.9151 216.843 65.984 216.843ZM174.549 213.34H66.0876L65.4877 213.268C56.6337 212.216 48.5623 207.464 43.3447 200.233C38.1271 193.002 36.1625 183.845 37.9551 175.109L45.3177 139.229C48.4955 123.742 62.2762 112.502 78.0853 112.502H162.551C178.361 112.502 192.141 123.742 195.319 139.229L202.681 175.109C204.474 183.844 202.51 193.001 197.292 200.233C192.074 207.464 184.003 212.216 175.148 213.268L174.549 213.34Z" fill="#000072"/>
<path d="M57.9285 84.2483C58.0336 84.6571 58.1446 85.0718 58.2556 85.4747C58.3431 85.7842 58.4308 86.0879 58.5184 86.3916C58.5534 86.5084 58.5826 86.6194 58.6235 86.7361C58.6936 86.9873 58.7753 87.2384 58.8513 87.4836C58.9506 87.8049 59.0557 88.1203 59.1608 88.4356C59.2075 88.5757 59.2543 88.7159 59.3009 88.8502C59.4528 89.3057 59.6104 89.7554 59.7798 90.1992C59.9551 90.6898 60.1419 91.1745 60.3347 91.6533C60.5216 92.1381 60.7201 92.617 60.9245 93.0958C61.1231 93.5688 61.3334 94.0477 61.5494 94.515C61.7538 94.9704 61.964 95.4202 62.1801 95.8699C62.2093 95.9283 62.2384 95.9866 62.2676 96.0451C62.4662 96.4656 62.6765 96.8802 62.8925 97.2948C62.8983 97.3065 62.9041 97.3182 62.91 97.3298C63.1436 97.7912 63.3831 98.2408 63.6284 98.6964C63.9204 99.2337 64.2182 99.7651 64.5277 100.291C64.738 100.659 64.9541 101.021 65.1702 101.383C65.1818 101.394 65.1876 101.406 65.1876 101.412C65.4563 101.856 65.7307 102.294 66.0111 102.732C66.4783 103.462 66.9571 104.186 67.4535 104.904C67.6696 105.22 67.8916 105.529 68.1135 105.839C68.3004 106.101 68.4872 106.358 68.68 106.621C68.9662 107.013 69.2582 107.398 69.5502 107.783C69.8363 108.157 70.1225 108.519 70.4145 108.887C70.578 109.092 70.7414 109.296 70.905 109.495C71.0101 109.623 71.1152 109.751 71.2204 109.88C71.4189 110.114 71.6116 110.347 71.8102 110.581C72.3475 111.211 72.8964 111.836 73.4571 112.455C73.7257 112.759 74.006 113.057 74.2864 113.355C74.4908 113.571 74.6952 113.793 74.8996 114.009C75.1916 114.312 75.4777 114.61 75.7756 114.902C76.1961 115.328 76.6283 115.755 77.0604 116.175C77.4108 116.514 77.7612 116.847 78.1175 117.174C78.17 117.227 78.2226 117.279 78.2752 117.32C78.6372 117.664 79.0051 117.997 79.3789 118.33C80.0623 118.944 80.7572 119.539 81.4638 120.129C81.6391 120.275 81.8143 120.421 81.9953 120.573C82.3516 120.865 82.7137 121.157 83.0815 121.449C84.3546 122.459 85.6569 123.434 86.9885 124.375C87.0118 124.392 87.041 124.41 87.0644 124.427C92.2561 128.083 97.9033 130.799 103.767 132.58C105.799 133.199 107.86 133.707 109.94 134.104C119.149 135.856 128.692 135.395 137.726 132.732C143.8 130.945 149.645 128.159 155.012 124.375C155.433 124.077 155.853 123.773 156.274 123.469C156.315 123.434 156.355 123.405 156.402 123.376C156.817 123.067 157.231 122.757 157.64 122.448C158.067 122.12 158.493 121.788 158.919 121.449H158.925C159.345 121.11 159.76 120.772 160.175 120.433C160.595 120.088 161.004 119.738 161.413 119.387C161.822 119.037 162.224 118.687 162.622 118.33C163.025 117.968 163.422 117.612 163.813 117.244C164.204 116.882 164.59 116.514 164.975 116.14C165.361 115.772 165.74 115.399 166.114 115.019C166.488 114.64 166.861 114.26 167.229 113.875C167.597 113.483 167.965 113.092 168.333 112.695C168.684 112.309 169.028 111.924 169.373 111.527C169.641 111.223 169.91 110.914 170.173 110.604C170.938 109.699 171.685 108.776 172.409 107.836C172.701 107.451 172.999 107.065 173.28 106.674C173.321 106.627 173.356 106.575 173.391 106.528C173.589 106.265 173.782 105.996 173.969 105.728C174.401 105.121 174.821 104.513 175.23 103.894C175.458 103.555 175.686 103.211 175.902 102.866C176.235 102.346 176.562 101.827 176.883 101.295C177.105 100.921 177.333 100.542 177.554 100.162C177.858 99.6309 178.156 99.0877 178.454 98.5445C178.67 98.1357 178.886 97.7269 179.096 97.3182C179.312 96.9036 179.523 96.4831 179.721 96.0626C179.756 96.0042 179.785 95.9458 179.809 95.8873C180.253 94.9821 180.667 94.0653 181.053 93.1426C181.076 93.1017 181.094 93.0666 181.105 93.0257C181.298 92.5703 181.485 92.1147 181.666 91.6533C181.859 91.1744 182.046 90.6897 182.221 90.1992C182.402 89.7145 182.577 89.2239 182.74 88.7334C182.863 88.3713 182.986 88.0034 183.103 87.6354C183.196 87.3434 183.284 87.0514 183.371 86.7594C183.412 86.6309 183.453 86.4966 183.488 86.3681C183.576 86.082 183.657 85.8016 183.733 85.5155C183.85 85.095 183.961 84.6745 184.072 84.2482C188.44 53.4132 160.403 19.2171 132.388 4.55292C125.264 0.821227 116.737 0.821227 109.613 4.55292C108.982 4.88 108.357 5.23033 107.726 5.59241L107.72 5.59823C80.3481 21.3313 53.6594 54.1084 57.9285 84.2483Z" fill="#4D5A6A"/>
<g opacity="0.4">
<path d="M110.225 134.043C109.431 133.837 108.64 133.62 107.854 133.38C101.991 131.599 96.3439 128.884 91.1522 125.228C91.1288 125.21 91.0994 125.193 91.0761 125.175C89.7447 124.235 88.4424 123.26 87.1692 122.249C86.8013 121.957 86.4392 121.665 86.083 121.373C85.902 121.222 85.7269 121.076 85.5516 120.93C84.845 120.34 84.15 119.744 83.4667 119.131C83.0929 118.798 82.725 118.465 82.363 118.121C82.3105 118.08 82.258 118.027 82.2053 117.975C81.8492 117.648 81.4987 117.314 81.1483 116.976C80.7163 116.555 80.2842 116.129 79.8637 115.703C79.5657 115.411 79.2796 115.113 78.9877 114.809C78.7832 114.593 78.5787 114.371 78.3743 114.155C78.0943 113.857 77.8137 113.56 77.5451 113.256C76.9845 112.637 76.4356 112.012 75.8983 111.381C75.6998 111.148 75.507 110.914 75.3083 110.68C75.2034 110.552 75.0982 110.424 74.993 110.295C74.8296 110.096 74.6662 109.892 74.5025 109.688C74.2105 109.32 73.9245 108.958 73.6382 108.584C73.3463 108.198 73.0542 107.813 72.7683 107.422C72.5755 107.159 72.3884 106.902 72.2017 106.639C71.9798 106.33 71.758 106.02 71.5418 105.705C71.0453 104.986 70.5666 104.262 70.0992 103.532C69.8189 103.094 69.5446 102.656 69.276 102.212C69.276 102.207 69.27 102.195 69.2583 102.183C69.0425 101.821 68.8263 101.459 68.6158 101.091C68.3064 100.566 68.0084 100.034 67.7164 99.4969C67.4712 99.0413 67.2319 98.5919 66.9984 98.1305C66.9924 98.1188 66.9865 98.1071 66.9808 98.0954C66.7646 97.6807 66.5545 97.2659 66.356 96.8455C66.3266 96.7871 66.2975 96.7287 66.2684 96.6704C66.0523 96.2208 65.8419 95.7711 65.6377 95.3154C65.4215 94.8483 65.2111 94.3693 65.0126 93.8965C64.8084 93.4175 64.6097 92.9386 64.4228 92.4539C64.2301 91.9751 64.043 91.4903 63.8679 90.9999C63.6985 90.5559 63.5408 90.1062 63.3891 89.6508C63.3423 89.5165 63.2956 89.3761 63.2487 89.2359C63.1438 88.9208 63.0386 88.6055 62.9393 88.2841C62.8635 88.0389 62.7816 87.7879 62.7115 87.5367C62.6707 87.4198 62.6414 87.3089 62.6063 87.1919C62.5188 86.8885 62.4312 86.5849 62.3437 86.2751C62.2328 85.8722 62.1219 85.4576 62.0167 85.0487C57.7998 55.2783 83.7865 22.9344 110.802 6.98486C91.7976 24.2706 77.4179 48.4902 80.6344 71.2138C80.7397 71.6227 80.8506 72.0374 80.9615 72.4403C81.0491 72.7499 81.1369 73.0534 81.2244 73.357C81.2595 73.474 81.2886 73.5849 81.3293 73.7017C81.3994 73.9527 81.4813 74.2039 81.5571 74.4492C81.6563 74.7705 81.7615 75.0859 81.8667 75.401C81.9132 75.5413 81.96 75.6813 82.0067 75.8159C82.1587 76.2713 82.3161 76.721 82.4855 77.1647C82.6609 77.6555 82.8477 78.1399 83.0405 78.6191C83.2272 79.1038 83.426 79.5826 83.6301 80.0613C83.8289 80.5344 84.0391 81.0135 84.2552 81.4806C84.4596 81.936 84.6698 82.386 84.886 82.8353C84.915 82.8938 84.9441 82.9522 84.9735 83.0106C85.172 83.4309 85.3821 83.8458 85.5983 84.2604C85.6043 84.2718 85.6099 84.2838 85.616 84.2952C85.8495 84.7566 86.0887 85.2063 86.3343 85.662C86.6262 86.1993 86.924 86.7308 87.2337 87.2563C87.4438 87.6242 87.6599 87.9863 87.8761 88.3485C87.8875 88.3599 87.8935 88.3719 87.8935 88.3776C88.1621 88.8213 88.4367 89.2593 88.7168 89.6973C89.1842 90.4272 89.6629 91.1516 90.1594 91.8699C90.3755 92.1852 90.5974 92.4946 90.8192 92.8043C91.0063 93.067 91.193 93.3239 91.3858 93.5869C91.6721 93.9781 91.9641 94.3636 92.2561 94.7491C92.5421 95.1227 92.8282 95.4848 93.1201 95.8527C93.2838 96.0571 93.4472 96.2616 93.6109 96.4601C93.7162 96.5887 93.8211 96.717 93.9263 96.8456C94.1248 97.0792 94.3175 97.3127 94.516 97.5465C95.0532 98.177 95.6021 98.8021 96.1628 99.4211C96.4317 99.7248 96.7121 100.023 96.9923 100.321C97.1967 100.536 97.4009 100.759 97.6054 100.974C97.8974 101.278 98.1837 101.576 98.4814 101.868C98.902 102.294 99.3341 102.721 99.7663 103.141C100.117 103.48 100.467 103.813 100.823 104.14C100.876 104.192 100.928 104.245 100.981 104.286C101.343 104.63 101.711 104.963 102.085 105.296C102.768 105.909 103.463 106.505 104.17 107.095C104.345 107.241 104.52 107.387 104.701 107.539C105.057 107.831 105.419 108.123 105.787 108.415C107.06 109.425 108.363 110.4 109.694 111.34C109.718 111.358 109.747 111.375 109.77 111.393C114.962 115.049 120.609 117.764 126.472 119.546C128.505 120.165 130.566 120.673 132.645 121.07C132.546 121.051 132.447 121.028 132.347 121.009C133.607 121.336 134.874 121.626 136.149 121.87C143.768 123.319 151.615 123.249 159.214 121.675C159.302 121.606 159.391 121.538 159.479 121.468C159.061 121.8 158.642 122.127 158.224 122.448C157.815 122.758 157.401 123.067 156.986 123.377C156.939 123.406 156.898 123.435 156.857 123.47C156.437 123.774 156.017 124.077 155.596 124.375C150.229 128.16 144.383 130.945 138.31 132.733C129.275 135.395 119.733 135.857 110.523 134.105C109.437 133.897 108.355 133.657 107.279 133.389C108.257 133.632 109.239 133.85 110.225 134.043Z" fill="#000072"/>
</g>
<g opacity="0.55">
<path d="M97.7044 12.4963C99.8593 11.0363 102.038 9.67557 104.216 8.42004L104.222 8.41422C104.852 8.05214 105.477 7.7017 106.108 7.37473C113.233 3.64304 121.759 3.64304 128.884 7.37473C156.898 22.0388 184.936 56.2376 180.568 87.0726C180.457 87.4989 180.346 87.9194 180.229 88.3399C180.153 88.626 180.071 88.9064 179.984 89.1925C179.949 89.321 179.908 89.4553 179.867 89.5838C179.779 89.8757 179.692 90.1678 179.598 90.4598C179.481 90.8277 179.359 91.1957 179.236 91.5578C179.073 92.0483 178.897 92.5389 178.716 93.0236C178.541 93.5142 178.354 93.9988 178.162 94.4777C177.981 94.9391 177.794 95.3946 177.601 95.8501C177.589 95.891 177.572 95.926 177.548 95.967C177.163 96.8897 176.748 97.8065 176.304 98.7117C176.281 98.7701 176.252 98.8285 176.217 98.8869C176.018 99.3074 175.808 99.7278 175.592 100.143C175.382 100.551 175.166 100.96 174.95 101.369C174.652 101.912 174.354 102.455 174.05 102.987C173.828 103.366 173.601 103.746 173.379 104.12C173.058 104.651 172.73 105.171 172.398 105.691C172.182 106.035 171.954 106.38 171.726 106.718C171.317 107.337 170.897 107.945 170.464 108.552C170.278 108.821 170.085 109.09 169.886 109.352C169.851 109.399 169.816 109.452 169.775 109.498C169.495 109.89 169.197 110.275 168.905 110.66C168.181 111.601 167.434 112.523 166.668 113.429C166.406 113.738 166.137 114.048 165.868 114.351C165.524 114.748 165.179 115.134 164.829 115.519C164.461 115.916 164.093 116.308 163.725 116.699C163.357 117.084 162.984 117.464 162.61 117.844C162.236 118.223 161.856 118.597 161.471 118.965C161.085 119.338 160.7 119.706 160.309 120.069C159.918 120.437 159.52 120.793 159.117 121.155C158.72 121.511 158.317 121.861 157.909 122.212C157.5 122.562 157.091 122.913 156.67 123.257C156.256 123.596 155.841 123.935 155.421 124.273H155.415C154.989 124.612 154.562 124.945 154.136 125.272C153.756 125.558 153.371 125.844 152.986 126.136C153.47 125.821 153.949 125.494 154.428 125.155C154.849 124.857 155.269 124.554 155.69 124.25C155.73 124.215 155.771 124.186 155.818 124.156C156.233 123.847 156.647 123.537 157.056 123.228C157.482 122.901 157.909 122.568 158.335 122.229H158.341C158.761 121.891 159.176 121.552 159.591 121.213C160.011 120.869 160.42 120.518 160.829 120.168C161.237 119.817 161.64 119.467 162.038 119.111C162.441 118.749 162.838 118.392 163.229 118.024C163.62 117.662 164.006 117.294 164.391 116.921C164.776 116.553 165.156 116.179 165.53 115.799C165.904 115.42 166.277 115.04 166.645 114.655C167.013 114.264 167.381 113.872 167.749 113.475C168.099 113.09 168.444 112.704 168.789 112.307C169.057 112.004 169.326 111.694 169.589 111.385C170.354 110.479 171.101 109.557 171.825 108.616C172.117 108.231 172.415 107.845 172.696 107.454C172.736 107.407 172.771 107.355 172.806 107.308C173.005 107.045 173.198 106.777 173.385 106.508C173.817 105.901 174.237 105.293 174.646 104.674C174.874 104.336 175.102 103.991 175.318 103.647C175.651 103.127 175.978 102.607 176.299 102.076C176.521 101.702 176.748 101.322 176.97 100.943C177.274 100.411 177.572 99.868 177.87 99.3249C178.086 98.916 178.302 98.5072 178.512 98.0985C178.728 97.6839 178.939 97.2634 179.137 96.8429C179.172 96.7845 179.201 96.7261 179.225 96.6676C179.668 95.7625 180.083 94.8456 180.469 93.9229C180.492 93.882 180.509 93.847 180.521 93.806C180.714 93.3506 180.901 92.895 181.082 92.4337C181.274 91.9547 181.461 91.4701 181.637 90.9795C181.818 90.4948 181.993 90.0042 182.156 89.5137C182.279 89.1516 182.402 88.7837 182.518 88.4158C182.612 88.1238 182.699 87.8318 182.787 87.5398C182.828 87.4113 182.869 87.277 182.904 87.1486C182.991 86.8624 183.073 86.5821 183.149 86.2959C183.266 85.8755 183.377 85.4549 183.488 85.0286C187.856 54.1936 159.818 19.9949 131.804 5.33075C124.679 1.59906 116.153 1.59906 109.028 5.33075C108.398 5.65783 107.773 6.00816 107.142 6.37024L107.136 6.37606C103.965 8.19808 100.805 10.2479 97.7044 12.4963Z" fill="white"/>
</g>
<path d="M121 136.887C133.277 136.888 145.551 133.194 156.022 125.807C156.45 125.504 156.875 125.197 157.3 124.889C157.322 124.874 157.343 124.857 157.365 124.84C157.394 124.821 157.422 124.801 157.451 124.78C157.891 124.451 158.298 124.147 158.698 123.844C159.112 123.527 159.518 123.209 159.924 122.887C159.959 122.864 159.991 122.84 160.023 122.814C160.434 122.483 160.839 122.152 161.244 121.821C161.716 121.435 162.135 121.076 162.553 120.718C162.972 120.358 163.385 119.999 163.792 119.634L163.849 119.583C164.243 119.229 164.63 118.88 165.013 118.52C165.404 118.158 165.799 117.781 166.195 117.398C166.583 117.027 166.976 116.641 167.362 116.248C167.758 115.846 168.131 115.468 168.497 115.083C168.877 114.68 169.247 114.286 169.618 113.886C169.989 113.477 170.343 113.082 170.696 112.675C170.962 112.375 171.239 112.056 171.509 111.736C172.311 110.788 173.081 109.836 173.798 108.905L173.991 108.65C174.22 108.349 174.448 108.048 174.668 107.743C174.709 107.693 174.747 107.641 174.784 107.59C175 107.304 175.206 107.016 175.406 106.729C175.875 106.07 176.299 105.454 176.692 104.86C176.922 104.517 177.16 104.157 177.386 103.797C177.719 103.278 178.054 102.745 178.382 102.2L178.588 101.854C178.748 101.586 178.909 101.316 179.067 101.046C179.368 100.519 179.656 99.9953 179.943 99.4721L179.989 99.3876C180.222 98.9482 180.442 98.5331 180.655 98.1184C180.866 97.7127 181.076 97.2926 181.276 96.8722C181.324 96.7844 181.369 96.6954 181.407 96.6064C181.878 95.6308 182.282 94.7417 182.638 93.8926C182.672 93.8246 182.71 93.743 182.744 93.6491C182.934 93.1989 183.118 92.7486 183.297 92.2927C183.492 91.8068 183.688 91.3004 183.871 90.7879C184.05 90.3078 184.232 89.7975 184.402 89.2871C184.526 88.9221 184.652 88.5438 184.773 88.1654C184.868 87.8659 184.958 87.5649 185.049 87.2636C185.089 87.1371 185.137 86.9807 185.178 86.8311C185.257 86.5721 185.345 86.271 185.427 85.9633C185.54 85.5545 185.654 85.1251 185.767 84.6897C185.784 84.6253 185.797 84.5598 185.806 84.4941C188.452 65.8212 179.654 48.5406 171.808 37.3319C161.894 23.1675 147.822 10.6543 133.201 3.00094C125.561 -1.00031 116.439 -1.00031 108.8 3.00094C94.1785 10.6544 80.1064 23.1678 70.1918 37.3319C62.3459 48.5406 53.5488 65.8213 56.1938 84.4941C56.2033 84.5583 56.2159 84.6222 56.2322 84.685C56.3394 85.1031 56.453 85.5272 56.5666 85.9394L56.8668 86.9851C56.8931 87.0757 56.9194 87.1649 56.9498 87.2565C57.0024 87.4407 57.0598 87.6251 57.1171 87.807L57.1776 88C57.2734 88.3105 57.3743 88.6145 57.4748 88.9181L57.4979 88.987C57.5484 89.1377 57.5973 89.2852 57.6468 89.4264C57.7993 89.8837 57.9654 90.3567 58.1431 90.8234C58.313 91.3009 58.5081 91.8075 58.71 92.3082C58.8941 92.7867 59.1008 93.2847 59.3127 93.7825C59.5163 94.2662 59.735 94.7642 59.9595 95.2501C60.1615 95.7009 60.3782 96.1646 60.6011 96.6287L60.7026 96.8314C60.8913 97.2336 61.1122 97.669 61.3394 98.1044C61.5871 98.5953 61.8337 99.0579 62.0856 99.5261C62.39 100.087 62.6982 100.636 63.0174 101.179C63.2224 101.538 63.4444 101.909 63.6658 102.28C63.6684 102.284 63.6705 102.288 63.6731 102.292C63.6784 102.301 63.6837 102.31 63.6889 102.319C63.9649 102.775 64.2474 103.226 64.5355 103.676C65.0493 104.479 65.5325 105.206 66.0121 105.9C66.2314 106.22 66.4607 106.54 66.6894 106.859C66.8782 107.124 67.069 107.387 67.2662 107.656C67.5586 108.055 67.8558 108.448 68.1533 108.841C68.4515 109.23 68.7438 109.601 69.0431 109.977C69.2151 110.192 69.3839 110.403 69.5532 110.608L70.4755 111.716C71.0255 112.361 71.5914 113.005 72.1588 113.631C72.4165 113.923 72.7015 114.227 72.9865 114.53L73.6281 115.213C73.9478 115.546 74.2428 115.853 74.5495 116.154C74.957 116.567 75.3977 117.002 75.8389 117.431C76.1955 117.776 76.5483 118.111 76.9075 118.441C76.9742 118.507 77.0421 118.571 77.1094 118.629C77.4717 118.973 77.8398 119.305 78.2143 119.639C78.9399 120.284 79.6551 120.901 80.3409 121.473L80.8682 121.914C81.2474 122.225 81.617 122.523 81.9915 122.821C83.2819 123.845 84.6234 124.849 85.9776 125.806C85.9881 125.813 86.0228 125.837 86.0423 125.85C86.0471 125.853 86.0518 125.857 86.0565 125.86C96.51 133.212 108.757 136.887 121 136.887ZM155.204 122.081C154.802 122.371 154.401 122.661 153.999 122.945C134.295 136.847 107.8 136.868 88.0714 122.994V122.994C88.0441 122.975 88.0147 122.954 87.9973 122.943C86.6974 122.025 85.4096 121.06 84.1701 120.077C83.8099 119.79 83.4549 119.504 83.1058 119.218L82.5862 118.784C81.9288 118.235 81.2411 117.641 80.5432 117.021C80.1846 116.702 79.8307 116.382 79.483 116.051C79.4531 116.022 79.4215 115.994 79.3889 115.968L79.3563 115.935C79.3384 115.917 79.32 115.9 79.3016 115.883C78.9566 115.566 78.6174 115.244 78.2782 114.916C77.8586 114.508 77.4348 114.09 77.0236 113.672C76.7202 113.375 76.4493 113.093 76.1737 112.806L75.5606 112.152C75.2788 111.853 75.019 111.577 74.7702 111.295C74.2117 110.679 73.6695 110.061 73.1437 109.444L72.2639 108.388C72.0993 108.188 71.941 107.991 71.7827 107.793C71.5003 107.437 71.2205 107.083 70.9409 106.718C70.6605 106.348 70.3739 105.97 70.0932 105.586C69.9054 105.33 69.7229 105.079 69.5405 104.822C69.3223 104.518 69.1076 104.219 68.8984 103.913C68.4383 103.248 67.9776 102.554 67.4865 101.787C67.2147 101.362 66.948 100.937 66.6871 100.506C66.6829 100.499 66.6787 100.492 66.6746 100.485C66.4637 100.132 66.2534 99.7791 66.0483 99.4207C65.7386 98.8937 65.4504 98.3797 65.168 97.86C64.9329 97.4235 64.6999 96.9868 64.4733 96.5387C64.4702 96.5324 64.4496 96.4911 64.446 96.4849C64.2409 96.091 64.041 95.6972 63.8522 95.2978L63.7444 95.0805C63.5498 94.675 63.3459 94.2399 63.1487 93.7987C62.932 93.3307 62.7301 92.8708 62.5392 92.417C62.3399 91.9489 62.149 91.4888 61.9697 91.0235C61.7756 90.5412 61.5974 90.0782 61.4301 89.61C61.2566 89.1535 61.1067 88.7273 60.9626 88.2955L60.8007 87.8146C60.7071 87.5333 60.6135 87.2519 60.5251 86.9657L60.4604 86.7585C60.4093 86.5954 60.3573 86.4306 60.311 86.2658C60.3009 86.2284 60.2894 86.1917 60.2763 86.155C60.2595 86.1061 60.2464 86.0585 60.2327 86.0107L59.9408 84.9963C59.8445 84.6459 59.7447 84.2746 59.6495 83.9062C57.7458 70.2417 62.507 54.42 73.0622 39.3412C82.666 25.6215 96.2837 13.5071 110.425 6.10509C117.046 2.6365 124.953 2.6365 131.575 6.10509C145.716 13.5071 159.334 25.6212 168.938 39.3412C179.492 54.4193 184.253 70.2404 182.351 83.9044C182.25 84.288 182.15 84.6674 182.045 85.0465C181.969 85.3326 181.893 85.5918 181.812 85.8566C181.769 86.0126 181.734 86.1248 181.7 86.2321C181.608 86.5378 181.523 86.8205 181.433 87.1034C181.319 87.4626 181.199 87.8199 181.08 88.1714C180.921 88.6499 180.753 89.1209 180.579 89.5863C180.403 90.0788 180.224 90.5421 180.04 90.9998C179.859 91.461 179.678 91.9022 179.491 92.3434C179.488 92.3516 179.484 92.3597 179.481 92.3681C179.465 92.4009 179.45 92.4343 179.436 92.4669C179.091 93.2918 178.697 94.1608 178.231 95.1241C178.22 95.1473 178.209 95.1707 178.199 95.1944C178.177 95.2332 178.156 95.273 178.137 95.3135C177.948 95.7134 177.748 96.1139 177.542 96.5083C177.33 96.9203 177.117 97.3228 176.905 97.7257L176.872 97.7856C176.594 98.2918 176.316 98.7977 176.033 99.2933C175.889 99.5394 175.733 99.8008 175.579 100.06L175.376 100.4C175.07 100.908 174.75 101.414 174.426 101.921C174.211 102.264 173.994 102.593 173.776 102.916C173.398 103.488 172.997 104.071 172.541 104.712C172.357 104.976 172.178 105.226 171.993 105.47C171.985 105.481 171.949 105.53 171.941 105.541L171.965 105.515C171.925 105.56 171.889 105.606 171.854 105.654C171.644 105.948 171.422 106.239 171.201 106.529L171.012 106.778C170.336 107.656 169.601 108.566 168.834 109.473C168.581 109.771 168.321 110.071 168.06 110.366C167.713 110.766 167.377 111.141 167.036 111.517C166.683 111.898 166.318 112.286 165.953 112.675C165.608 113.036 165.248 113.401 164.888 113.766C164.504 114.157 164.137 114.517 163.765 114.873C163.379 115.247 163.004 115.605 162.622 115.958C162.248 116.31 161.88 116.641 161.506 116.976L161.45 117.027C161.064 117.374 160.67 117.716 160.272 118.058C159.873 118.399 159.474 118.742 159.064 119.078C158.658 119.409 158.285 119.714 157.908 120.018C157.882 120.037 157.855 120.056 157.829 120.077C157.411 120.409 156.992 120.736 156.573 121.058C156.192 121.346 155.797 121.642 155.401 121.937C155.332 121.983 155.267 122.03 155.204 122.081ZM79.3484 115.935C79.3526 115.939 79.3568 115.942 79.361 115.945C79.3568 115.942 79.3526 115.939 79.3484 115.935ZM179.42 92.5477C179.419 92.5485 179.419 92.5493 179.419 92.5501C179.419 92.5493 179.419 92.5486 179.42 92.5477ZM179.527 92.2817C179.526 92.2822 179.526 92.2824 179.526 92.283C179.526 92.2824 179.526 92.2819 179.527 92.2817Z" fill="#000072"/>
<path d="M71.9235 93.0985C72.0312 93.4265 72.1483 93.7592 72.2702 94.1013C75.5174 102.419 81.8854 106.851 85.7418 101.833L83.4411 90.5354L81.876 82.8553C75.8596 78.746 67.8375 80.5921 71.9235 93.0985Z" fill="#FDBD91"/>
<path d="M81.8847 104.159C83.415 104.159 84.7948 103.408 85.9076 101.96L85.9655 101.884L82.064 82.7306L81.9941 82.6828C78.7096 80.4395 75.0128 80.0506 72.7963 81.7137C71.3528 82.7964 69.2945 85.7238 71.7257 93.1632C71.8335 93.493 71.9513 93.8274 72.0738 94.1713C74.2439 99.7305 77.823 103.629 81.1933 104.109C81.4267 104.142 81.6575 104.159 81.8847 104.159ZM85.5179 101.78C84.3468 103.264 82.8765 103.925 81.2521 103.695C78.0285 103.236 74.5789 99.4404 72.4649 94.0251C72.3456 93.6907 72.2288 93.3599 72.122 93.0333C70.3803 87.7032 70.709 83.8018 73.047 82.0475C75.1052 80.5028 78.5701 80.8799 81.6885 82.9804L85.5179 101.78Z" fill="#000072"/>
<g opacity="0.3">
<path d="M71.9235 93.0984C72.0312 93.4264 72.1483 93.7591 72.2702 94.1012C75.5174 102.418 81.8854 106.851 85.7418 101.833L83.4411 90.5353C82.9022 90.4931 82.5789 90.4697 82.5789 90.4697C80.2407 97.7843 76.8435 98.4355 72.3873 92.419C72.3873 92.419 72.2187 92.6674 71.9235 93.0984Z" fill="#000072"/>
</g>
<path d="M81.8762 105.354C83.7752 105.354 85.5194 104.428 86.8561 102.689C87.1049 102.366 87.2005 101.951 87.119 101.552L83.2533 82.5745C83.1808 82.2161 82.971 81.9003 82.6691 81.6942C78.916 79.1314 74.6297 78.7759 72.0046 80.8118C70.2435 82.177 67.7641 85.781 70.9481 94.5792C73.3182 100.651 77.1739 104.744 81.0232 105.292C81.3104 105.333 81.5948 105.354 81.8762 105.354ZM84.2279 101.444C83.4007 102.31 82.4757 102.659 81.4198 102.509C78.6596 102.116 75.5091 98.5312 73.5797 93.5898C71.7092 88.4195 71.7581 84.56 73.7269 83.034C75.2661 81.8408 78.0426 82.1321 80.6163 83.7134L84.2279 101.444Z" fill="#000072"/>
<path d="M170.065 93.0985C169.957 93.4265 169.84 93.7592 169.718 94.1013C166.471 102.419 160.103 106.851 156.246 101.833L158.547 90.5354L160.112 82.8553C166.129 78.746 174.151 80.5921 170.065 93.0985Z" fill="#FDBD91"/>
<path d="M160.103 104.242C160.334 104.242 160.569 104.225 160.807 104.191C164.206 103.707 167.811 99.7881 169.99 94.2073C170.116 93.8547 170.234 93.5198 170.343 93.1895V93.189C172.789 85.7004 170.703 82.7432 169.242 81.6468C166.997 79.9624 163.262 80.3505 159.948 82.6141L159.85 82.6809L155.934 101.905L156.015 102.01C157.145 103.48 158.546 104.242 160.103 104.242ZM169.787 93.0076C169.681 93.3334 169.564 93.6636 169.443 94.003C167.343 99.3826 163.919 103.158 160.725 103.613C159.122 103.841 157.722 103.218 156.559 101.759L160.375 83.0303C163.457 80.9656 166.869 80.5955 168.891 82.1141C171.199 83.8453 171.517 87.7137 169.787 93.0076Z" fill="#000072"/>
<g opacity="0.55">
<path d="M161.443 103.812C164.418 102.819 167.487 99.2293 169.437 94.239C169.558 93.897 169.675 93.5643 169.783 93.2362C173.869 80.7298 165.847 78.8836 159.831 82.9931L159.803 83.1336C165.243 81.0765 170.73 83.9303 167.206 94.7216C167.098 95.0496 166.981 95.3823 166.859 95.7244C165.477 99.2716 163.523 102.111 161.443 103.812Z" fill="white"/>
</g>
<path d="M160.112 105.354C160.393 105.354 160.678 105.334 160.965 105.293C164.814 104.744 168.67 100.651 171.028 94.6123C174.224 85.7811 171.745 82.1772 169.984 80.812C167.358 78.777 163.073 79.1314 159.32 81.6944C159.018 81.9005 158.808 82.2163 158.736 82.5747L154.869 101.552C154.788 101.951 154.884 102.366 155.132 102.69C156.469 104.428 158.213 105.354 160.112 105.354ZM165.822 82.3019C166.779 82.3019 167.626 82.5414 168.261 83.0341C170.23 84.5602 170.279 88.4197 168.396 93.6229C166.479 98.5313 163.329 102.116 160.568 102.509C159.511 102.659 158.589 102.311 157.76 101.444L161.372 83.7136C162.883 82.7854 164.464 82.3019 165.822 82.3019Z" fill="#000072"/>
<path d="M82.7243 90.8212V97.3156C82.7243 108.487 88.0708 119.081 97.2783 125.407C97.4096 125.496 97.5408 125.58 97.6673 125.669C111.711 135.083 130.098 135.083 144.141 125.674C144.268 125.585 144.399 125.496 144.53 125.407C153.742 119.086 159.089 108.491 159.089 97.3157V90.8213C159.089 90.8213 159.065 90.4043 159.018 89.6545C158.672 83.727 157.102 57.1304 156.849 56.4509C148.489 33.9497 64.9135 39.4649 82.7243 90.8212Z" fill="#FDBD91"/>
<path d="M120.909 133.058C129.054 133.058 137.197 130.678 144.304 125.917C144.422 125.833 144.539 125.754 144.656 125.674C153.891 119.338 159.381 108.746 159.381 97.3155V90.821C159.38 90.8045 159.356 90.3869 159.31 89.6363C158.738 79.8591 157.381 57.0417 157.122 56.3489C154.928 50.4427 147.489 46.0665 136.714 44.3429C126.312 42.6791 114.196 43.8068 104.303 47.3589C94.426 50.9058 72.5333 62.2442 82.4327 90.8702V97.3154C82.4327 108.74 87.9206 119.332 97.1131 125.647L97.2646 125.749C97.3439 125.802 97.4229 125.854 97.4996 125.908C104.61 130.675 112.76 133.058 120.909 133.058ZM126.854 44.1725C130.194 44.1725 133.486 44.418 136.621 44.9197C147.183 46.6088 154.456 50.8488 156.574 56.5526C156.777 57.3008 157.861 74.8628 158.727 89.6714C158.774 90.4205 158.797 90.837 158.797 90.8375L158.797 97.3154C158.797 108.554 153.401 118.965 144.364 125.166C144.208 125.273 144.088 125.354 143.973 125.435C129.96 134.823 111.845 134.821 97.8296 125.427C97.7539 125.373 97.6713 125.318 97.5878 125.263L97.442 125.165C88.4093 118.96 83.0161 108.548 83.0161 97.3154L83.0003 90.7253C73.2314 62.5574 94.7813 51.3986 104.5 47.9087C111.323 45.4587 119.213 44.1725 126.854 44.1725Z" fill="#000072"/>
<g opacity="0.3">
<path d="M82.7243 90.8213V97.3157C82.7243 108.487 88.0708 119.081 97.2784 125.407C97.4096 125.496 97.5408 125.58 97.6674 125.669C111.711 135.083 130.098 135.083 144.141 125.674C144.268 125.585 144.399 125.496 144.53 125.407C144.82 125.206 145.111 124.999 145.397 124.789C132.183 131.213 116.345 130.257 103.913 121.921C103.787 121.832 103.656 121.747 103.525 121.658C94.317 115.333 88.9705 104.738 88.9705 93.5671L88.4151 85.3805C82.3704 67.9541 88.5581 57.5006 98.9607 49.9377C84.8048 56.9149 75.5597 70.1569 82.7243 90.8213Z" fill="#000072"/>
</g>
<g opacity="0.3">
<path d="M82.7243 90.8212V93.4593C86.9227 87.2741 87.7334 70.3958 87.7334 70.3958C91.4039 74.3819 112.02 78.978 126.488 71.2922C127.268 70.8777 128.124 71.7066 127.733 72.4987C127.556 72.8556 127.485 72.9761 127.485 72.9761C129.387 74.1541 138.351 73.006 143.213 70.1766C144.566 69.3896 146.29 70.242 146.533 71.7878C147.622 78.7396 151.083 83.5792 158.489 90.8213C158.672 90.4324 158.85 90.0434 159.018 89.6545C158.672 83.727 157.102 57.1304 156.849 56.4509C148.489 33.9497 64.9135 39.4649 82.7243 90.8212Z" fill="#000072"/>
</g>
<g opacity="0.55">
<path d="M105.061 129.61C117.76 134.816 132.455 133.504 144.141 125.674C144.268 125.585 144.399 125.496 144.53 125.407C153.742 119.086 159.089 108.491 159.089 97.3155V90.8211C159.089 90.8211 157.135 57.2146 156.849 56.4508C155.092 51.7228 150.017 48.2319 143.255 46.1421C148.339 48.2648 152.074 51.3339 153.531 55.2513C153.817 56.0198 155.771 89.6215 155.771 89.6215V96.1161C155.771 107.292 150.424 117.886 141.212 124.212C141.081 124.296 140.936 124.368 140.819 124.475C131.701 132.73 116.945 133.344 105.061 129.61Z" fill="white"/>
</g>
<path d="M120.906 134.174C129.266 134.174 137.626 131.73 144.921 126.841C145.055 126.751 145.19 126.66 145.325 126.568C154.823 120.05 160.494 109.114 160.494 97.3153V90.8211C160.494 90.7938 160.494 90.7668 160.492 90.7396C158.526 56.949 158.255 56.1988 158.166 55.9596C153.022 42.1181 124.04 39.0867 103.922 46.3123C94.339 49.7546 87.0832 55.2134 82.9382 62.0982C78.0609 70.2012 77.5161 79.9431 81.3186 91.0565V97.3153C81.3186 109.111 86.988 120.046 96.4845 126.565L96.8847 126.837C104.181 131.728 112.543 134.174 120.906 134.174ZM157.683 90.8619V97.3153C157.683 108.187 152.468 118.256 143.734 124.25C143.608 124.336 143.483 124.421 143.357 124.505C129.716 133.647 112.089 133.646 98.452 124.502L98.0771 124.248C89.3435 118.253 84.1301 108.185 84.1301 97.3154V90.8212C84.1301 90.6645 84.1039 90.5086 84.0528 90.3606C74.6089 63.1346 95.4672 52.3371 104.873 48.9583C125.261 41.6362 151.204 45.6911 155.492 56.8376C155.753 58.653 156.937 78.0492 157.683 90.8619ZM155.521 56.9113C155.524 56.9195 155.528 56.9294 155.53 56.9376C155.528 56.93 155.524 56.9213 155.521 56.9113Z" fill="#000072"/>
<path d="M83.1647 42.6746C72.6216 56.1463 73.9337 79.5893 82.8133 91.8755C89.6076 88.1269 90.0575 70.3958 90.0575 70.3958C106.139 74.7724 122.413 72.1014 137.168 59.3888C137.482 64.3839 133.298 69.0181 133.298 69.0181C135.196 68.9619 136.897 68.6854 138.424 68.2262C143.761 66.6283 146.938 62.7627 148.883 57.9035C150.757 74.7724 150.874 78.521 159.089 90.8211C167.289 73.2494 168.798 51.5776 155.129 45.0972C174.186 38.537 167.158 25.2575 150.757 37.0517C158.803 25.4918 148.649 21.0356 146.54 33.7717C134.68 12.1092 82.579 19.7143 75.5174 44.3147L83.1459 42.6794C83.16 42.6746 83.1647 42.6746 83.1647 42.6746Z" fill="#AC3D50"/>
<path d="M82.7281 92.2558L82.9543 92.1309C89.3482 88.6034 90.2311 73.4202 90.3369 70.7732C107.42 75.3135 123.078 71.6932 136.893 60.0081C136.848 64.591 133.121 68.7787 133.081 68.8223L132.623 69.3298L133.306 69.3098C135.166 69.2549 136.916 68.9846 138.509 68.5061C143.125 67.1238 146.473 64.0239 148.715 59.0447L148.818 59.9699C150.485 75.0745 150.933 79.1343 158.846 90.9833L159.134 91.4145L159.353 90.9446C167.612 73.2461 168.985 52.0213 155.875 45.1432C163.572 42.3485 166.599 38.5847 166.849 35.9467C166.98 34.5689 166.389 33.429 165.183 32.7373C162.924 31.4405 158.278 31.6724 151.818 35.9627C154.525 31.5344 154.448 28.3296 153.471 26.8605C152.898 25.9999 152.001 25.6276 151.018 25.8401C149.373 26.1932 147.343 28.2503 146.397 32.9352C139.874 22.0993 124.14 19.7032 111.399 21.1196C96.217 22.8069 79.148 30.6086 75.2367 44.2339L75.1026 44.702L82.4542 43.1263C72.2247 56.9636 74.001 80.1804 82.5768 92.0466L82.7281 92.2558ZM89.7752 70.0163L89.7657 70.3884C89.7609 70.5619 89.254 87.5971 82.8963 91.4894C74.4436 79.5439 72.8503 56.3278 83.3943 42.8544L83.764 42.3825L83.0504 42.4035L75.9387 43.9256C80.031 30.8502 96.6519 23.3461 111.463 21.7C124.284 20.2746 140.164 22.7343 146.284 33.9116L146.69 34.6533L146.828 33.819C147.65 28.8583 149.664 26.728 151.14 26.411C151.89 26.2508 152.545 26.5237 152.984 27.184C153.95 28.636 153.884 32.0475 150.518 36.8849L149.544 38.284L150.928 37.2888C157.813 32.3381 162.756 32.0154 164.893 33.2438C165.888 33.8149 166.376 34.7551 166.268 35.8915C166.038 38.3058 162.959 42.0932 155.034 44.8212L154.356 45.0545L155.004 45.3611C168.311 51.6699 167.111 72.6105 159.042 90.2249C151.487 78.8273 151.033 74.7124 149.398 59.9063L149.044 56.7137L148.611 57.7949C146.446 63.2049 143.087 66.5258 138.341 67.9467C136.986 68.354 135.51 68.6059 133.947 68.6974C135.028 67.3386 137.72 63.5115 137.46 59.3706L137.423 58.7843L136.978 59.1679C123.11 71.1161 107.35 74.7998 90.1343 70.114L89.7752 70.0163Z" fill="#000072"/>
<g opacity="0.3">
<path d="M150.833 54.9667C150.135 56.3151 149.497 57.8352 149.075 59.6372C150.776 75.0487 151.165 78.9519 159.089 90.8211C160.016 88.8297 160.86 86.7913 161.6 84.7249C155.094 74.6323 154.333 68.9315 152.83 55.3342C152.715 54.2889 151.317 54.0331 150.833 54.9667Z" fill="#000072"/>
</g>
<g opacity="0.55">
<path d="M153.855 35.0508C164.173 30.679 167.907 38.2371 157.856 44.0382C172.363 37.7124 167.19 27.4131 153.855 35.0508Z" fill="white"/>
</g>
<g opacity="0.55">
<path d="M155.457 45.2612C155.448 45.2655 155.438 45.27 155.428 45.2743C154.129 45.8486 153.855 47.5532 154.948 48.4598C164.284 56.2006 163.929 73.6174 157.767 88.8016C158.179 89.4483 158.62 90.1231 159.089 90.8212C167.223 73.39 168.774 51.9291 155.457 45.2612Z" fill="white"/>
</g>
<g opacity="0.55">
<path d="M151.399 36.8642L151.431 36.8467C156.876 28.4638 151.922 23.6363 148.614 27.5021C150.441 27.7718 151.526 30.5976 149.497 35.0685C148.958 36.2544 150.256 37.4887 151.399 36.8642Z" fill="white"/>
</g>
<g opacity="0.55">
<path d="M85.8591 31.663C94.837 27.5208 106.861 24.7515 117.774 24.7C119.456 27.9285 125.126 27.7691 127.511 25.4731C133.649 26.5743 138.846 28.8984 142.089 32.7736C143.016 33.8841 144.83 33.8091 145.561 32.5581C145.603 32.4925 145.64 32.4222 145.673 32.3426C135.505 19.3768 101.205 18.3085 85.8591 31.663Z" fill="white"/>
</g>
<path d="M82.8144 93.2814C83.0448 93.2814 83.2783 93.2247 83.4923 93.1063C89.6916 89.6861 91.0763 77.057 91.3818 72.188C107.386 76.0694 122.139 72.8869 135.313 62.7177C134.361 65.6994 132.281 68.0464 132.253 68.0776C131.878 68.4964 131.787 69.0996 132.024 69.6097C132.255 70.1069 132.753 70.4236 133.298 70.4236C133.312 70.4236 133.326 70.4236 133.341 70.4231C139.795 70.2248 144.707 67.6189 147.996 62.6614C149.48 75.9179 150.326 80.2307 157.92 91.6018C158.202 92.0235 158.685 92.2599 159.195 92.2229C159.702 92.1842 160.148 91.8758 160.362 91.4157C168.421 74.1477 169.975 53.5533 158.355 45.3553C165.001 42.4675 167.701 38.7599 167.958 36.0522C168.13 34.2403 167.321 32.6801 165.738 31.7714C163.611 30.5492 159.701 30.4598 154.454 33.1273C155.611 29.979 155.308 27.6115 154.398 26.2434C153.57 25.0006 152.217 24.4426 150.784 24.7511C148.719 25.1947 147.006 27.2065 145.946 30.316C138.513 20.7708 123.534 18.6515 111.276 20.0127C95.7247 21.7409 78.2193 29.8059 74.1665 43.9266C74.0297 44.4014 74.1528 44.9129 74.4899 45.2739C74.827 45.6351 75.3281 45.7921 75.8124 45.689L79.9946 44.7919C76.1895 51.0341 74.1849 59.0384 74.2995 67.738C74.4263 77.2916 77.1139 86.3894 81.6737 92.6989C81.9467 93.0764 82.3758 93.2814 82.8144 93.2814ZM90.0581 68.9902C89.7589 68.9902 89.4639 69.0856 89.2183 69.2682C88.8723 69.5258 88.6636 69.9283 88.6525 70.3599C88.5394 74.7277 87.3194 86.0774 83.1624 89.8952C75.5038 78.0283 74.2927 56.2918 84.2715 43.5411C84.6365 43.0752 84.6701 42.4308 84.3561 41.9293C84.0427 41.4274 83.4506 41.176 82.8695 41.3002L77.6813 42.4129C82.5528 30.9522 97.8571 24.3332 111.586 22.8071C127.249 21.0673 140.483 25.6355 145.307 34.4466C145.596 34.9727 146.185 35.2583 146.776 35.1576C147.367 35.0571 147.829 34.5928 147.927 34.0012C148.709 29.2764 150.524 27.6828 151.374 27.5002C151.582 27.4553 151.827 27.455 152.057 27.8012C152.636 28.6715 152.869 31.557 149.604 36.2488C149.212 36.8109 149.283 37.5729 149.771 38.0535C150.26 38.5334 151.023 38.5922 151.578 38.1931C157.619 33.8484 162.34 33.0628 164.338 34.21C164.958 34.5655 165.227 35.081 165.159 35.7862C164.946 38.0359 161.62 41.3764 154.671 43.7683C154.131 43.9541 153.757 44.4487 153.725 45.0193C153.694 45.5898 154.01 46.1228 154.527 46.3676C161.879 49.8534 163.685 57.7991 163.904 63.851C164.165 71.0259 162.336 79.6671 158.852 87.8956C152.518 78.0205 152.069 73.9532 150.505 59.7841L150.28 57.7482C150.208 57.1074 149.71 56.5973 149.071 56.5105C148.431 56.4235 147.817 56.7834 147.577 57.3817C145.314 63.0423 141.598 66.3092 136.265 67.2997C137.473 65.3041 138.766 62.3955 138.571 59.301C138.538 58.7684 138.206 58.3005 137.714 58.0934C137.223 57.8862 136.655 57.9751 136.251 58.3242C122.679 70.0155 107.264 73.6211 90.4266 69.0395C90.3053 69.0063 90.1812 68.9902 90.0581 68.9902Z" fill="#000072"/>
<path d="M90.0586 71.8018C90.6786 71.8018 91.2465 71.3883 91.4148 70.7609C91.6167 70.011 91.1724 69.2398 90.4225 69.0382C88.6766 68.5687 86.9112 68.0049 85.1754 67.3623C84.447 67.0931 83.6383 67.4647 83.3691 68.1927C83.0998 68.9207 83.4716 69.7295 84.1995 69.999C86.0158 70.6713 87.8636 71.2613 89.6926 71.7532C89.8146 71.786 89.9376 71.8018 90.0586 71.8018Z" fill="#000072"/>
<g opacity="0.3">
<path d="M82.8132 91.8754C89.6076 88.1268 90.0574 70.3957 90.0574 70.3957C106.139 74.7723 122.413 72.1013 137.168 59.3888C137.482 64.3839 133.298 69.018 133.298 69.018C135.196 68.9618 136.897 68.6854 138.424 68.2262C146.118 55.5464 142.843 52.5568 131.78 56.4554C101.078 66.3612 78.7272 67.9122 83.1646 42.6746C72.6216 56.1464 73.9337 79.5892 82.8132 91.8754Z" fill="#000072"/>
</g>
<g opacity="0.2">
<path d="M90.6078 54.3903C90.6078 56.5198 94.7769 58.2461 99.92 58.2461C105.063 58.2461 109.232 56.5198 109.232 54.3903C109.232 52.2608 105.063 52.2058 99.92 52.2058C94.7769 52.2057 90.6078 52.2608 90.6078 54.3903Z" fill="#FEFEFE"/>
</g>
<path d="M115.98 116.815C115.98 116.815 117.996 118.103 123.251 118.103C124.391 118.182 127.653 118.003 131.776 114.239C131.776 114.239 129.871 119.728 123.373 119.728C123.373 119.728 119.677 120.064 115.98 116.815Z" fill="#000072"/>
<path d="M145.814 92.4202C145.373 90.9865 144.317 89.7935 143.015 88.9819C141.707 88.1713 140.139 87.7564 138.584 87.7727C137.028 87.7834 135.482 88.2296 134.188 89.0359C132.9 89.8443 131.843 91.0039 131.349 92.4203C132.763 91.9344 133.967 91.5464 135.156 91.2965C136.337 91.0415 137.476 90.9153 138.613 90.8994C139.75 90.8879 140.885 90.9883 142.055 91.2371C143.233 91.4805 144.424 91.8781 145.814 92.4202Z" fill="#000072"/>
<path d="M95.4339 92.4202C96.8248 91.8781 98.0149 91.4805 99.1931 91.2371C100.363 90.9883 101.498 90.8879 102.635 90.8994C103.773 90.9152 104.911 91.0414 106.092 91.2965C107.281 91.5463 108.485 91.9344 109.899 92.4203C109.406 91.0039 108.348 89.8444 107.06 89.0359C105.766 88.2297 104.22 87.7836 102.664 87.7727C101.109 87.7564 99.5415 88.1713 98.2331 88.9819C96.9315 89.7935 95.8754 90.9865 95.4339 92.4202Z" fill="#000072"/>
<path d="M137.169 107.358C134.5 107.358 132.336 104.504 132.336 100.984C132.336 97.4628 134.5 94.6086 137.169 94.6086C139.837 94.6086 142.001 97.4628 142.001 100.984C142.001 104.504 139.837 107.358 137.169 107.358Z" fill="#000072"/>
<path d="M135.934 101.646C135.128 101.646 134.474 100.687 134.474 99.5049C134.474 98.3227 135.128 97.3643 135.934 97.3643C136.74 97.3643 137.394 98.3227 137.394 99.5049C137.394 100.687 136.74 101.646 135.934 101.646Z" fill="white"/>
<path d="M135.934 101.938C136.917 101.938 137.686 100.869 137.686 99.5047C137.686 98.1406 136.917 97.072 135.934 97.072C134.952 97.072 134.182 98.1406 134.182 99.5047C134.182 100.869 134.952 101.938 135.934 101.938ZM135.934 97.6562C136.567 97.6562 137.102 98.5026 137.102 99.5046C137.102 100.507 136.567 101.353 135.934 101.353C135.301 101.353 134.766 100.507 134.766 99.5046C134.766 98.5025 135.301 97.6562 135.934 97.6562Z" fill="#000072"/>
<path d="M103.755 107.358C101.086 107.358 98.9228 104.504 98.9228 100.984C98.9228 97.4628 101.086 94.6086 103.755 94.6086C106.424 94.6086 108.588 97.4628 108.588 100.984C108.588 104.504 106.424 107.358 103.755 107.358Z" fill="#000072"/>
<path d="M104.99 101.646C104.183 101.646 103.53 100.687 103.53 99.5049C103.53 98.3227 104.183 97.3643 104.99 97.3643C105.796 97.3643 106.45 98.3227 106.45 99.5049C106.45 100.687 105.796 101.646 104.99 101.646Z" fill="white"/>
<path d="M104.989 101.938C105.972 101.938 106.742 100.869 106.742 99.5047C106.742 98.1406 105.972 97.072 104.989 97.072C104.007 97.072 103.238 98.1406 103.238 99.5047C103.238 100.869 104.007 101.938 104.989 101.938ZM104.989 97.6562C105.623 97.6562 106.158 98.5026 106.158 99.5046C106.158 100.507 105.623 101.353 104.989 101.353C104.356 101.353 103.822 100.507 103.822 99.5046C103.822 98.5025 104.356 97.6562 104.989 97.6562Z" fill="#000072"/>
<path d="M50.3378 214.403C51.0872 218.108 53.0923 221.297 55.8572 223.56C58.622 225.819 62.1465 227.152 65.9294 227.152H173.349C180.915 227.152 187.437 221.819 188.941 214.403H50.3378Z" fill="#C6D3E3"/>
<path d="M65.9294 227.444H173.349C181.024 227.444 187.701 221.984 189.227 214.461L189.298 214.111H49.9805L50.0515 214.461C50.7898 218.111 52.786 221.423 55.672 223.786C58.56 226.145 62.2026 227.444 65.9294 227.444ZM188.58 214.695C186.976 221.765 180.628 226.86 173.349 226.86H65.9294C62.3372 226.86 58.8255 225.608 56.0415 223.334C53.3522 221.132 51.4644 218.075 50.6988 214.695H188.58Z" fill="#000072"/>
<path d="M65.9273 228.904H173.348C181.715 228.904 188.993 222.952 190.655 214.752C190.76 214.237 190.627 213.702 190.295 213.295C189.962 212.888 189.464 212.653 188.938 212.653H50.3364C49.8106 212.653 49.3131 212.888 48.9802 213.295C48.6473 213.702 48.5149 214.237 48.6194 214.753C50.2818 222.952 57.5608 228.904 65.9273 228.904ZM186.623 216.156C184.595 221.622 179.317 225.4 173.348 225.4H65.9272C59.9586 225.4 54.6805 221.621 52.6517 216.156H186.623Z" fill="#000072"/>
<g opacity="0.3">
<path d="M50.3378 214.403C51.0872 218.108 53.0923 221.297 55.8572 223.56C58.622 225.819 62.1465 227.152 65.9294 227.152H132.373C121.453 226.635 111.774 223.622 103.443 217.876C103.443 217.876 102.87 216.475 101.598 214.403L50.3378 214.403Z" fill="#000072"/>
</g>
<path d="M50.3791 147.044L55.9862 210.982C56.3273 214.883 59.5934 217.876 63.5107 217.876H175.768C179.68 217.876 182.946 214.883 183.292 210.982L188.894 147.044C189.447 140.765 184.496 135.36 178.197 135.36H61.0818C59.0198 135.36 57.1025 135.939 55.4746 136.936C52.1258 138.993 50.007 142.822 50.3791 147.044Z" fill="#C6D3E3"/>
<path d="M63.511 218.168H175.768C179.861 218.168 183.221 215.09 183.583 211.007L189.185 147.07C189.456 143.996 188.415 140.927 186.33 138.65C184.246 136.374 181.281 135.068 178.197 135.068H61.0821C59.0433 135.068 57.0518 135.628 55.3224 136.687C51.7239 138.897 49.7188 142.876 50.0884 147.07V147.07L55.6956 211.007C56.0521 215.09 59.4119 218.168 63.511 218.168ZM178.197 135.652C181.118 135.652 183.925 136.888 185.899 139.044C187.874 141.201 188.86 144.107 188.603 147.019L183.001 210.956C182.666 214.735 179.556 217.584 175.767 217.584H63.5109C59.7168 217.584 56.6073 214.735 56.2771 210.956L50.6698 147.019C50.3196 143.047 52.2191 139.278 55.6277 137.185C57.2647 136.182 59.151 135.652 61.082 135.652L178.197 135.652Z" fill="#000072"/>
<g opacity="0.75">
<path d="M52.1673 140.104C53.5368 139.463 55.0665 139.107 56.6892 139.107H173.804C180.104 139.107 185.055 144.512 184.502 150.791L178.9 214.728C178.812 215.726 178.533 216.661 178.099 217.503C180.91 216.594 183.018 214.072 183.292 210.982L188.894 147.044C189.447 140.765 184.496 135.36 178.197 135.36H61.082C57.3508 135.36 54.0898 137.257 52.1673 140.104Z" fill="white"/>
</g>
<path d="M63.5089 219.625H175.766C180.626 219.625 184.611 215.975 185.036 211.133L190.642 147.195C190.947 143.714 189.769 140.24 187.408 137.663C185.047 135.087 181.689 133.609 178.195 133.609H61.0805C57.5861 133.609 54.228 135.087 51.8674 137.663C49.5067 140.24 48.3283 143.714 48.6333 147.195L54.2396 211.133C54.6639 215.975 58.6489 219.625 63.5089 219.625ZM178.195 137.113C180.746 137.113 183.101 138.149 184.825 140.03C186.548 141.912 187.374 144.347 187.151 146.889L181.545 210.827C181.28 213.845 178.796 216.122 175.766 216.122H63.5089C60.4789 216.122 57.9948 213.845 57.7303 210.827L52.124 146.889C51.9011 144.348 52.7276 141.912 54.4509 140.03C56.1747 138.149 58.5289 137.113 61.0805 137.113H178.195Z" fill="#000072"/>
<g opacity="0.3">
<path d="M50.3792 147.044L55.9863 210.982C56.3274 214.883 59.5935 217.876 63.5107 217.876H164.77C102.461 212.971 63.9086 187.798 55.4953 136.931L55.4746 136.936C52.1259 138.993 50.0071 142.822 50.3792 147.044Z" fill="#000072"/>
</g>
<g opacity="0.3">
<path d="M160.642 189.026L167.674 189.685C169.497 189.855 171.114 188.515 171.285 186.692L173.7 160.879C173.871 159.056 172.531 157.439 170.708 157.269L163.676 156.61C161.852 156.44 160.236 157.78 160.065 159.603L157.649 185.416C157.479 187.239 158.819 188.856 160.642 189.026Z" fill="white"/>
</g>
<g clip-path="url(#clip0_2_871)">
<path d="M138.414 175.969L132.078 172.453C131.703 172.266 131.281 172.266 130.906 172.453L128.375 173.883V164.109H109.625V173.883L107.094 172.453C106.719 172.266 106.297 172.266 105.922 172.453L99.5859 175.969C99.2343 176.18 99 176.578 99 177C99 177.422 99.2343 177.82 99.5859 178.031L104.094 180.516L116.07 190.922H121.93L133.906 180.516L138.414 178.031C138.766 177.82 139 177.422 139 177C139 176.578 138.766 176.18 138.414 175.969ZM119 179.18L113.068 175.828H124.932L119 179.18Z" fill="url(#paint0_linear_2_871)"/>
<path d="M138.414 183L133.906 180.516L119.586 188.578C119.398 188.672 119.188 188.719 119 188.719C118.812 188.719 118.602 188.672 118.414 188.578L104.094 180.516L99.5859 183C99.2343 183.211 99 183.609 99 184.031C99 184.453 99.2343 184.851 99.5859 185.062L118.414 195.609C118.602 195.703 118.812 195.75 119 195.75C119.188 195.75 119.398 195.703 119.586 195.609L138.414 185.062C138.766 184.851 139 184.453 139 184.031C139 183.609 138.766 183.211 138.414 183ZM99.5859 171L118.414 181.547C118.602 181.641 118.812 181.688 119 181.688C119.188 181.688 119.398 181.641 119.586 181.547L138.414 171C138.766 170.789 139 170.391 139 169.969C139 169.547 138.766 169.148 138.414 168.938L119.586 158.391C119.211 158.203 118.789 158.203 118.414 158.391L99.5859 168.938C99.2343 169.148 99 169.547 99 169.969C99 170.391 99.2343 170.789 99.5859 171ZM122.867 168.445C122.399 168 122.399 167.25 122.867 166.805C123.313 166.336 124.062 166.336 124.508 166.805L126.852 169.148C127.32 169.594 127.32 170.344 126.852 170.789L124.508 173.133C124.086 173.601 123.289 173.602 122.867 173.133C122.399 172.687 122.399 171.937 122.867 171.492L124.367 169.969L122.867 168.445ZM117.266 172.031L118.438 167.344C118.602 166.711 119.234 166.336 119.867 166.5C120.5 166.64 120.875 167.273 120.734 167.906L119.562 172.594C119.363 173.359 118.498 173.62 118.133 173.437C117.5 173.297 117.125 172.664 117.266 172.031ZM111.149 169.148L113.492 166.805C113.938 166.336 114.688 166.336 115.133 166.805C115.602 167.25 115.602 168 115.133 168.445L113.633 169.969L115.133 171.492C115.601 171.937 115.601 172.687 115.133 173.133C114.711 173.601 113.914 173.602 113.492 173.133L111.148 170.789C110.68 170.344 110.68 169.594 111.149 169.148Z" fill="url(#paint1_linear_2_871)"/>
</g>
<defs>
<linearGradient id="paint0_linear_2_871" x1="119" y1="190.922" x2="119" y2="164.109" gradientUnits="userSpaceOnUse">
<stop stop-color="#ADDCFF"/>
<stop offset="0.5028" stop-color="#EAF6FF"/>
<stop offset="1" stop-color="#EAF6FF"/>
</linearGradient>
<linearGradient id="paint1_linear_2_871" x1="119" y1="195.75" x2="119" y2="158.25" gradientUnits="userSpaceOnUse">
<stop stop-color="#5558FF"/>
<stop offset="1" stop-color="#000072"/>
</linearGradient>
<clipPath id="clip0_2_871">
<rect width="40" height="40" fill="white" transform="translate(99 157)"/>
</clipPath>
</defs>
</svg>
